<svg xmlns="http://www.w3.org/2000/svg" xmlns:xlink="http://www.w3.org/1999/xlink" width="156" height="35" viewBox="0 0 156 35">
    <defs>
        <path id="a" d="M0 34.933h155.103V0H0z"/>
    </defs>
    <g fill="none" fill-rule="evenodd">
        <path fill="#231F20" d="M80.209 21.352a4.412 4.412 0 1 1 0-8.824 4.412 4.412 0 0 1 0 8.824m0-13.346c-1.885 0-3.385.548-4.529 1.495a2.429 2.429 0 0 0-2.319-1.73h-.002a2.436 2.436 0 0 0-2.436 2.436v22.29a2.435 2.435 0 0 0 2.435 2.435h.003a2.434 2.434 0 0 0 2.435-2.434v-7.601c1.13.94 2.59 1.497 4.413 1.497a9.194 9.194 0 1 0 0-18.388M99.099 7.765c-1.538 0-2.614.88-3.051 1.666 0-.713-.808-1.66-2.182-1.66-1.418 0-2.305.947-2.305 2.654V23.79a2.436 2.436 0 0 0 2.436 2.436c1.243 0 2.437-.998 2.437-2.727l.001-6.515c0-1.628.203-2.79 1.287-3.523.688-.466 1.63-.647 2.216-.798 1.108-.289 2.04-.875 2.04-2.483 0-1.34-1.195-2.415-2.88-2.415M132.874 16.071c-1.059-.542-2.32-1.004-3.333-1.375-.29-.107-.56-.206-.81-.301-.89-.297-1.343-.749-1.343-1.342 0-.71.681-1.328 1.686-1.328.982 0 1.576.599 2.244 1.176.625.537 1.924.867 2.956.115.825-.602 1.157-1.717.172-3.043-1.087-1.464-3.235-2.208-5.225-2.208-3.907 0-6.636 2.213-6.636 5.38 0 2.058 1.066 3.662 3.077 4.635.596.306 1.556.663 2.484 1.006.697.26 1.356.504 1.76.693.972.448 1.085.932 1.085 1.258 0 .825-.89 1.265-2.115 1.265-1.33 0-2.402-.544-3.211-1.266-.876-.782-2.124-.92-3.128-.144-1.267.977-.63 2.712.168 3.495 1.11 1.088 3.607 2.25 6.14 2.25 4.147 0 7.044-2.355 7.044-5.726 0-2.018-.958-3.46-3.015-4.54M148.183 16.071c-1.059-.542-2.319-1.004-3.333-1.375-.29-.107-.56-.206-.809-.301-.89-.297-1.343-.749-1.343-1.342 0-.71.68-1.328 1.686-1.328.982 0 1.575.599 2.244 1.176.624.537 1.923.867 2.956.115.825-.602 1.156-1.717.172-3.043-1.088-1.464-3.235-2.208-5.225-2.208-3.908 0-6.636 2.213-6.636 5.38 0 2.058 1.065 3.662 3.076 4.635.596.306 1.556.663 2.484 1.006.698.26 1.357.504 1.76.693.973.448 1.085.932 1.085 1.258 0 .825-.889 1.265-2.114 1.265-1.332 0-2.402-.544-3.211-1.266-.876-.782-2.124-.92-3.129-.144-1.267.977-.629 2.712.17 3.495 1.109 1.088 3.605 2.25 6.138 2.25 4.148 0 7.044-2.355 7.044-5.726 0-2.018-.957-3.46-3.015-4.54M43.99 14.924c-.374-1.84-2.013-2.86-3.92-2.86-1.996 0-3.634 1.02-4.098 2.86h8.019zm-3.92 11.407c-5.185 0-9.248-3.816-9.248-9.28 0-5.377 3.916-9.28 9.312-9.28 5.066 0 8.76 4.03 8.76 8.703 0 .529-.222 1.167-.696 1.663-.454.473-1.293.826-2.116.826h-10.18c.482 1.855 2.045 3.03 4.213 3.03 1.538 0 2.766-.768 3.292-1.293 1.013-1.014 2.49-.397 2.824-.148 1.426 1.06.777 2.958.139 3.582-1.492 1.462-3.684 2.197-6.3 2.197zM50.676 25.604l-.002-.001a2.436 2.436 0 0 1 0-3.445l5.106-5.107-5.117-5.117a2.437 2.437 0 0 1 0-3.445l.002-.001a2.436 2.436 0 0 1 3.445 0l8.564 8.563-8.553 8.553c-.952.95-2.494.95-3.445 0M64.114 15.63l3.695-3.696a2.436 2.436 0 0 0 0-3.445l-.002-.001a2.436 2.436 0 0 0-3.444 0l-3.696 3.695 3.447 3.447zM60.678 21.909l3.696 3.695a2.436 2.436 0 0 0 3.445 0v-.002a2.435 2.435 0 0 0 0-3.444l-3.695-3.696-3.446 3.447zM115.564 14.924c-.375-1.84-2.014-2.86-3.921-2.86-1.996 0-3.634 1.02-4.098 2.86h8.019zm-3.921 11.407c-5.185 0-9.25-3.816-9.25-9.28 0-5.377 3.917-9.28 9.314-9.28 5.065 0 8.76 4.03 8.76 8.703 0 .529-.222 1.167-.697 1.663-.454.473-1.292.826-2.116.826h-10.178c.481 1.855 2.043 3.03 4.212 3.03 1.538 0 2.766-.768 3.291-1.293 1.014-1.014 2.491-.397 2.825-.148 1.425 1.06.777 2.958.139 3.582-1.493 1.462-3.685 2.197-6.3 2.197z"/>
        <mask id="b" fill="#fff">
            <use xlink:href="#a"/>
        </mask>
        <path fill="#EC1D24" d="M1.905 34.103h20.884V0H1.904z" mask="url(#b)"/>
        <path fill="#EC1D24" d="M11.049 19.883c.249 1.332 1.175 3.616 1.626 4.272.12.176 1.123 1.421.226-1.412-.534-1.697-1.852-2.86-1.852-2.86m3.065-9c-.706.904-1.15 2.682-1.028 3.456 1.325-1.459 1.028-3.457 1.028-3.457m-.767-1.043c-1.218-1.017-3.442-.374-4.546-.092-1.553.398-3.576 1.167-4.204 1.453-.661.3-1.168.578-1.733.875-.443.23-1.494.715-.613 1.221.432.248.944.447 1.791.807.911.388 2.18.893 2.76 1.147.474.21 1.619.749 2.09 1.073.9-.524 1.254-.15 1.446.334.118.292.264.122.369.02.337-.294.859-.731 1.135-1.02-.518-3.494 1.505-5.818 1.505-5.818m-2.077 8.134c-.175.123-.199.206.04.44 2.136 2.14 2.67 4.222 2.82 4.864.223.952.384 1.695.403 2.166.065 1.389-.764 1.451-1.662.748-.275-.204-1.139-1.115-1.707-2.333-.442-.947-1.08-2.708-1.332-4.017-.112-.591-.249-.46-.422-.565-.284-.165-.573-.586-.386-.974.128-.238.328-.22-.12-.535-1.625-1.143-4.254-2.083-4.741-2.258-.408-.147-2.871-.965-3.605-1.663-.869-.82-.702-1.42.357-2.096 1.342-.865 5.03-2.611 7.871-3.287 1.508-.357 3.655-.847 5.338.363 1.083-1.208 2.214-1.778 2.824-1.953.592-.17 1.05-.018 1.315.307.943 1.168-.266 1.386-.716.956-.168-.162-.515-.016-.79.166-.542.36-1.205.805-1.818 1.55.597 1.28.98 3.64-1.637 6.351.467 2.929 2.747 2.523 3.341 2.354 1.8-.512 4.226-2.553 6.827-5.245.81-.836 1.834-.017.967.912-2.883 3.083-6.014 5.13-7.842 5.565-1.832.436-3.512.057-4.342-2.59 0 0-.438.357-.983.774" mask="url(#b)"/>
        <path fill="#FEFEFE" d="M11.049 19.15c.249 1.332 1.175 3.616 1.626 4.272.12.175 1.123 1.42.226-1.413-.534-1.696-1.852-2.859-1.852-2.859m3.065-9.001c-.706.904-1.15 2.683-1.028 3.457 1.325-1.46 1.028-3.457 1.028-3.457m-.767-1.042c-1.218-1.019-3.442-.376-4.546-.093-1.553.396-3.576 1.168-4.204 1.453-.661.3-1.168.577-1.733.873-.443.23-1.494.717-.613 1.223.432.249.944.445 1.791.807.911.389 2.18.894 2.76 1.15.474.207 1.619.745 2.09 1.069.9-.522 1.254-.152 1.446.335.118.291.264.122.369.021.337-.296.859-.734 1.135-1.022-.518-3.493 1.505-5.816 1.505-5.816m-2.077 8.132c-.175.122-.199.205.04.44 2.136 2.14 2.67 4.222 2.82 4.866.223.952.384 1.693.403 2.165.065 1.388-.764 1.45-1.662.749-.275-.205-1.139-1.115-1.707-2.332-.442-.949-1.08-2.71-1.332-4.02-.112-.59-.249-.459-.422-.564-.284-.166-.573-.587-.386-.973.128-.239.328-.222-.12-.536-1.625-1.142-4.254-2.084-4.741-2.259-.408-.145-2.871-.964-3.605-1.664-.869-.82-.702-1.419.357-2.095 1.342-.863 5.03-2.61 7.871-3.286 1.508-.36 3.655-.85 5.338.362 1.083-1.209 2.214-1.778 2.824-1.952.592-.17 1.05-.017 1.315.307.943 1.167-.266 1.386-.716.952-.168-.159-.515-.012-.79.17-.542.36-1.205.805-1.818 1.548.597 1.283.98 3.642-1.637 6.353.467 2.928 2.747 2.522 3.341 2.352 1.8-.51 4.226-2.554 6.827-5.243.81-.835 1.834-.016.967.911-2.883 3.083-6.014 5.133-7.842 5.566-1.832.434-3.512.058-4.342-2.59 0 0-.438.358-.983.773" mask="url(#b)"/>
        <path fill="#231F20" d="M152.543 7.89v.294h-.542v1.773h-.295V8.184h-.542V7.89zM153.288 8.732l-.197 1.225h-.302l.351-2.117.806 1.563.807-1.563.35 2.117h-.301l-.197-1.225-.66 1.274z" mask="url(#b)"/>
    </g>
</svg>
