<svg width="142" height="120" viewBox="0 0 142 120" fill="none" xmlns="http://www.w3.org/2000/svg">
<path d="M83.1994 13.4291C82.9957 11.9939 82.6917 10.5749 82.2897 9.1824C81.0429 4.94275 78.3512 1.53614 73.9002 0.701921C68.8705 -0.236285 64.2168 0.236363 59.1741 0.236363H46.7213H22.9706C17.7547 0.236363 12.5577 0.457325 11.1859 6.52139C9.83897 12.4661 11.153 18.7429 11.153 24.7479V103.845C11.153 107.733 9.98509 113.062 12.6095 116.473C15.2128 119.852 20.1517 118.827 23.9228 119.049C34.5537 119.676 45.0738 118.776 55.5445 118.986C60.7733 119.091 65.8171 119.222 71.0283 119.676C74.1783 119.947 78.9311 120.148 81.2962 117.267C83.9148 114.077 83.1535 109.141 83.1818 105.311C83.3621 80.9965 82.9461 56.3101 83.3974 31.8577C83.5023 25.9354 84.0715 19.4554 83.1994 13.4291Z" fill="black"/>
<path d="M42.0098 112.107C41.9674 112.593 41.8648 114.053 42.0876 114.486C42.3739 115.041 43.0657 115.221 43.6797 115.331C45.3295 115.626 47.0183 115.606 48.6905 115.611C50.1541 115.611 51.7321 115.794 52.4686 114.214C52.801 113.505 52.8399 112.692 52.8022 111.908C52.7291 110.424 52.6607 108.943 52.6053 107.458C52.6093 107.189 52.5723 106.922 52.4958 106.665C52.0102 105.279 49.9833 105.437 48.8354 105.385C47.5792 105.328 46.2051 104.934 44.9571 105.031C40.8066 105.334 42.2549 109.323 42.0098 112.107Z" fill="white"/>
<path d="M77.0714 12.9293C76.9006 11.3684 76.5022 9.89022 75.675 8.63534C73.6999 5.63757 69.3914 6.68212 66.3981 6.6833H59.1235C54.4167 6.6833 49.7103 6.6833 45.0043 6.6833C40.2983 6.6833 35.5919 6.66794 30.8851 6.63722C27.6609 6.6195 21.8817 5.33744 19.83 8.66843C18.7693 10.3806 18.4582 12.8384 18.4582 14.8282V86.4154C18.4582 88.1784 18.6315 89.9189 18.5278 91.6819C18.4512 92.9888 18.3793 94.3051 18.45 95.6143C18.5843 98.0957 19.3798 100.65 21.9418 101.538C25.1625 102.652 28.8947 102.175 32.2533 102.451C35.7204 102.736 39.1697 102.253 42.6344 102.253H62.9299C66.5725 102.253 70.0007 102.236 73.5879 101.78C79.6252 101.007 76.9642 87.9645 76.9642 84.025V21.2692C76.9642 18.7476 77.3802 15.7062 77.0714 12.9293Z" fill="#8DC6E8"/>
<path d="M66.4358 93.8679C65.2715 94.0616 64.1119 92.7441 63.0407 93.2475C62.6812 93.4165 62.422 93.7686 62.0531 93.9139C60.9065 94.3653 59.7221 92.6142 58.5932 93.1057C58.1583 93.2959 57.8861 93.7851 57.4359 93.9269C56.4684 94.2306 55.5044 92.7749 54.597 93.2298C54.2682 93.3964 54.0796 93.7781 53.7461 93.9388C52.9707 94.3074 52.2141 93.2688 51.3621 93.2227C50.4594 93.1742 49.7441 94.246 48.8484 94.1195C48.0754 94.0108 47.4461 93.0301 46.7213 93.3255C46.2983 93.4992 46.125 94.0415 45.7243 94.2613C44.7816 94.7812 43.5678 93.1731 42.6874 93.8029C42.4364 93.9837 42.3127 94.3039 42.0688 94.4941C41.113 95.2433 39.7118 93.3905 38.6748 94.0215C38.3849 94.1975 38.2152 94.539 37.9158 94.6997C37.3643 94.9951 36.7221 94.552 36.266 94.116C35.064 92.9639 33.737 91.2801 32.5668 89.5006C31.8244 88.5246 31.122 87.2921 30.4574 85.8458C30.3772 85.6828 30.3006 85.5209 30.2217 85.3626H30.2335C29.108 82.8008 28.0945 79.6175 27.1824 76.0183C24.0925 78.4997 22.2623 81.5826 22.2623 84.9218C22.2623 93.1376 33.3399 99.7984 47.01 99.7984C55.2593 99.7984 62.5575 97.3737 67.0557 93.6469C66.8601 93.7486 66.6516 93.823 66.4358 93.8679Z" fill="#00A19B"/>
<path d="M78.7885 45.1379C76.831 36.5334 76.9642 33.473 76.9642 21.2692C76.9642 18.7512 77.3802 15.7097 77.0761 12.9329C76.9053 11.372 76.507 9.89376 75.6797 8.63888C73.7046 5.64111 69.3961 6.68566 66.4028 6.68684H59.1282C54.4214 6.68684 49.715 6.68684 45.009 6.68684C40.303 6.68684 35.5966 6.67148 30.8898 6.64076C27.6656 6.62304 21.8864 5.34098 19.8347 8.67197C19.7249 8.84823 19.6242 9.03005 19.533 9.21669C19.4965 9.7177 19.4741 10.2211 19.4635 10.7233C19.4187 12.8596 19.5813 14.9972 19.7934 17.1217C19.8861 18.0324 19.9808 18.932 20.0774 19.8205C20.6148 28.6413 21.6094 41.7561 23.2829 54.3994L23.3312 54.416L74.5684 53.8453L75.3214 54.1797L76.0096 54.5247L76.1027 54.5755C76.2029 53.6964 78.8721 45.5019 78.7885 45.1379Z" fill="#D1E7F5"/>
<path d="M37.7874 12.5571C36.2966 11.6401 34.5643 11.2762 32.6363 11.9084C30.4527 12.6244 28.7309 14.4158 27.7127 16.4812C24.5721 22.8525 26.1984 33.0369 28.6802 39.4046C30.125 43.1114 33.4943 47.2837 37.3478 48.6106C43.0917 50.5898 45.6136 43.8511 46.0685 39.329C46.7508 32.5335 45.0008 24.7537 42.3999 18.4734C41.4689 16.2295 39.8756 13.8462 37.7874 12.5571Z" fill="white"/>
<path fill-rule="evenodd" clip-rule="evenodd" d="M123.747 30.2093C127.563 30.2837 131.236 32.3988 133.41 35.5466C135.584 38.6945 136.277 42.7746 135.504 46.5227C134.597 50.832 131.89 54.544 128.069 56.7169C124.248 58.8898 119.681 59.3148 115.527 57.884C114.386 57.4906 113.298 56.9646 112.21 56.4389C111.029 55.8685 109.849 55.2983 108.604 54.898C107.238 54.4596 105.747 54.0496 104.292 53.9693C104.371 53.513 104.33 53.0438 104.174 52.608C103.551 50.8693 102.734 49.2103 101.919 47.554C101.698 47.1054 101.477 46.657 101.261 46.2072C101.017 45.7086 100.78 45.2099 100.553 44.7054C100.517 44.6251 100.486 44.5562 100.459 44.4962C100.3 44.1447 100.277 44.0948 100.169 43.8062L105.28 41.6143C106.256 41.193 106.969 40.3839 107.683 39.5737C108.006 39.2067 108.329 38.8394 108.678 38.5078C112.943 34.4359 117.86 30.0911 123.747 30.2093ZM114.294 51.2055C117.021 54.3214 122.56 54.6428 126.153 53.0346V53.0358C129.455 51.56 130.992 48.1533 130.806 44.6617C130.68 42.2452 129.752 39.8714 128.095 38.2277C125.893 36.0417 122.488 34.6297 119.424 35.7038C113.988 37.6168 110.269 46.6101 114.294 51.2055Z" fill="#E1251B"/>
<path d="M53.131 13.6973H73.6621C73.6998 13.6583 71.2534 19.9079 71.2534 19.9079L74.579 25.198L71.3677 31.6379L74.6945 36.6987L72.5143 42.3339C72.5143 42.3339 76.8746 49.1577 76.8746 49.1187L56.3435 49.2369C56.3435 49.2369 59.0539 43.3713 59.0963 43.3713L54.2776 38.7689C54.2387 38.7689 58.5201 32.3279 58.5201 32.3279L52.0986 26.4683L55.9982 20.6039L53.131 13.6973Z" fill="#B2D7EF"/>
<g style="mix-blend-mode:multiply">
<path d="M48.5397 25.6931C48.3143 25.7237 48.1561 25.9314 48.1861 26.1575C48.2875 26.9279 48.3994 27.7184 48.5185 28.5077C48.5477 28.711 48.7214 28.862 48.9262 28.8622C48.947 28.8639 48.9679 28.8639 48.9887 28.8622C49.0972 28.8459 49.1947 28.7868 49.2596 28.6981C49.3244 28.6093 49.3512 28.4982 49.334 28.3896C49.2161 27.6061 49.1042 26.8204 49.004 26.0547C48.9911 25.9446 48.9346 25.8444 48.8474 25.7764C48.7601 25.7084 48.6492 25.6784 48.5397 25.6931Z" fill="#B2D7EF"/>
</g>
<g style="mix-blend-mode:multiply">
<path d="M53.6931 47.9418C53.628 47.7225 53.398 47.5977 53.1793 47.6629C52.9606 47.7282 52.8361 47.9589 52.9012 48.1781C53.3243 49.6173 53.5965 50.4516 53.5988 50.4598C53.6449 50.6002 53.7622 50.7052 53.9065 50.7354C54.0508 50.7655 54.2002 50.7162 54.2983 50.606C54.3965 50.4958 54.4286 50.3414 54.3825 50.2011C54.3802 50.1892 54.1115 49.3668 53.6931 47.9418Z" fill="#B2D7EF"/>
</g>
<g style="mix-blend-mode:multiply">
<path d="M49.1926 30.1396C48.9697 30.1776 48.8189 30.3884 48.8544 30.6122C48.8602 30.6512 48.8673 30.689 48.8744 30.7304L49.5143 30.8946L49.7594 31.0128C49.728 30.8332 49.6974 30.6548 49.6675 30.4775C49.6493 30.3695 49.5891 30.2732 49.5 30.2098C49.4109 30.1464 49.3003 30.1211 49.1926 30.1396Z" fill="#B2D7EF"/>
</g>
<g style="mix-blend-mode:multiply">
<path d="M48.0636 21.2267C47.8366 21.2473 47.6691 21.4481 47.6888 21.6757C47.7584 22.4473 47.8373 23.2413 47.9245 24.0389C47.9474 24.2481 48.1236 24.4065 48.3335 24.4064H48.3806C48.6067 24.3805 48.7691 24.1758 48.7436 23.9491C48.6564 23.161 48.5762 22.3728 48.5079 21.6072C48.4995 21.4976 48.4479 21.3958 48.3645 21.3244C48.2811 21.253 48.1729 21.2179 48.0636 21.2267Z" fill="#B2D7EF"/>
</g>
<g style="mix-blend-mode:multiply">
<path d="M47.9351 19.9304H47.9634C48.1905 19.9152 48.3624 19.7185 48.3476 19.4908C48.2958 18.6956 48.2545 17.9039 48.2298 17.1382C48.2243 16.9905 48.1406 16.8569 48.0103 16.7878C47.8799 16.7186 47.7227 16.7245 47.5978 16.8031C47.4729 16.8817 47.3994 17.0212 47.4048 17.169C47.4343 17.9429 47.4755 18.7429 47.5227 19.5452C47.5376 19.7625 47.7179 19.9309 47.9351 19.9304Z" fill="#B2D7EF"/>
</g>
<g style="mix-blend-mode:multiply">
<path d="M47.8456 10.9501H47.8715C48.0893 10.9505 48.2697 10.7806 48.2828 10.5625C48.3099 10.1395 48.3405 9.71651 48.3759 9.3053C48.3887 9.15755 48.322 9.01415 48.2008 8.92912C48.0796 8.84409 47.9223 8.83036 47.7883 8.89308C47.6543 8.95581 47.5638 9.08547 47.5509 9.23322C47.5144 9.65152 47.4826 10.0816 47.4567 10.5117C47.4496 10.6217 47.4867 10.73 47.5598 10.8124C47.6329 10.8947 47.7358 10.9443 47.8456 10.9501Z" fill="#B2D7EF"/>
</g>
<g style="mix-blend-mode:multiply">
<path d="M53.1109 45.8988C52.9495 45.308 52.788 44.7172 52.6289 44.1158L51.6861 43.6998C51.6833 43.7434 51.6868 43.7872 51.6968 43.8298C51.8983 44.5979 52.1045 45.3659 52.3131 46.1198C52.3624 46.299 52.5248 46.4232 52.7102 46.4235C52.7477 46.4235 52.785 46.4183 52.821 46.4081C52.927 46.3794 53.0171 46.3095 53.0715 46.2139C53.1259 46.1183 53.1401 46.0049 53.1109 45.8988Z" fill="#B2D7EF"/>
</g>
<g style="mix-blend-mode:multiply">
<path d="M47.763 15.439C47.8726 15.4381 47.9774 15.3935 48.0541 15.315C48.1308 15.2365 48.1732 15.1306 48.172 15.0207C48.172 14.8057 48.172 14.5895 48.172 14.3744C48.172 13.8001 48.179 13.2282 48.1932 12.6729C48.197 12.5251 48.1219 12.3866 47.9961 12.3094C47.8704 12.2322 47.7132 12.2282 47.5837 12.2988C47.4542 12.3693 47.372 12.5039 47.3683 12.6516C47.3541 13.2129 47.347 13.793 47.347 14.3744C47.347 14.5918 47.347 14.8104 47.347 15.029C47.348 15.1387 47.3923 15.2435 47.4703 15.3204C47.5484 15.3973 47.6537 15.44 47.763 15.439Z" fill="#B2D7EF"/>
</g>
<g style="mix-blend-mode:multiply">
<path d="M39.8497 52.7002L37.4928 52.6707C37.265 52.6707 37.0803 52.8558 37.0803 53.0842C37.0803 53.3126 37.265 53.4978 37.4928 53.4978L39.8497 53.5273C40.0775 53.5273 40.2622 53.3422 40.2622 53.1138C40.2622 52.8854 40.0775 52.7002 39.8497 52.7002Z" fill="#B2D7EF"/>
</g>
<g style="mix-blend-mode:multiply">
<path d="M44.3279 52.7582L41.9709 52.7286C41.7431 52.7286 41.5585 52.9138 41.5585 53.1422C41.5585 53.3706 41.7431 53.5558 41.9709 53.5558L44.3279 53.5853C44.5557 53.5853 44.7403 53.4002 44.7403 53.1717C44.7403 52.9433 44.5557 52.7582 44.3279 52.7582Z" fill="#B2D7EF"/>
</g>
<g style="mix-blend-mode:multiply">
<path d="M35.3715 52.6447L33.0146 52.6151C32.8672 52.6132 32.7301 52.6903 32.6547 52.8173C32.5794 52.9443 32.5774 53.102 32.6494 53.2309C32.7215 53.3598 32.8566 53.4404 33.004 53.4423L35.3609 53.473H35.3668C35.5946 53.473 35.7793 53.2878 35.7793 53.0594C35.7793 52.831 35.5946 52.6459 35.3668 52.6459L35.3715 52.6447Z" fill="#B2D7EF"/>
</g>
<g style="mix-blend-mode:multiply">
<path d="M26.4164 52.5313L24.0595 52.5006C23.8317 52.5006 23.647 52.6858 23.647 52.9142C23.647 53.1426 23.8317 53.3277 24.0595 53.3277L26.4164 53.3585C26.6442 53.3585 26.8289 53.1733 26.8289 52.9449C26.8289 52.7165 26.6442 52.5313 26.4164 52.5313Z" fill="#B2D7EF"/>
</g>
<g style="mix-blend-mode:multiply">
<path d="M30.8934 52.588L28.5364 52.5573C28.3086 52.5573 28.124 52.7424 28.124 52.9708C28.124 53.1992 28.3086 53.3844 28.5364 53.3844L30.8934 53.4151H30.8992C31.127 53.4151 31.3117 53.23 31.3117 53.0015C31.3117 52.7731 31.127 52.588 30.8992 52.588H30.8934Z" fill="#B2D7EF"/>
</g>
<g style="mix-blend-mode:multiply">
<path d="M48.8048 52.8184L46.4479 52.7888C46.2201 52.7872 46.0341 52.971 46.0325 53.1994C46.0309 53.4278 46.2142 53.6143 46.442 53.616L48.7989 53.6455H48.8048C49.0326 53.6455 49.2173 53.4603 49.2173 53.2319C49.2173 53.0035 49.0326 52.8184 48.8048 52.8184Z" fill="#B2D7EF"/>
</g>
<g style="mix-blend-mode:multiply">
<path d="M71.1944 53.0997L68.8375 53.069C68.6097 53.069 68.425 53.2541 68.425 53.4825C68.425 53.7109 68.6097 53.8961 68.8375 53.8961L71.1944 53.9268C71.4222 53.9268 71.6069 53.7417 71.6069 53.5133C71.6069 53.2849 71.4222 53.0997 71.1944 53.0997Z" fill="#B2D7EF"/>
</g>
<g style="mix-blend-mode:multiply">
<path d="M53.283 52.8716L50.926 52.8421C50.6982 52.8404 50.5123 53.0243 50.5106 53.2527C50.509 53.4811 50.6924 53.6676 50.9201 53.6692L53.2771 53.6987H53.283C53.5108 53.6987 53.6954 53.5136 53.6954 53.2852C53.6954 53.0568 53.5108 52.8716 53.283 52.8716Z" fill="#B2D7EF"/>
</g>
<g style="mix-blend-mode:multiply">
<path d="M66.7163 53.0429L64.3594 53.0122C64.1316 53.0106 63.9456 53.1944 63.944 53.4228C63.9424 53.6512 64.1257 53.8377 64.3535 53.8394L66.7104 53.8689H66.7163C66.9441 53.8689 67.1288 53.6837 67.1288 53.4553C67.1288 53.2269 66.9441 53.0418 66.7163 53.0418V53.0429Z" fill="#B2D7EF"/>
</g>
<g style="mix-blend-mode:multiply">
<path d="M73.0859 53.193C72.9331 53.291 72.8623 53.4778 72.9117 53.6528C72.9611 53.8278 73.119 53.9497 73.3004 53.9528L74.8395 53.9729L73.0859 53.193Z" fill="#B2D7EF"/>
</g>
<g style="mix-blend-mode:multiply">
<path d="M57.7611 52.9283L55.4042 52.8988H55.3983C55.1705 52.8988 54.9858 53.084 54.9858 53.3124C54.9858 53.5408 55.1705 53.7259 55.3983 53.7259L57.7552 53.7555C57.983 53.7571 58.169 53.5733 58.1706 53.3449C58.1723 53.1165 57.9889 52.93 57.7611 52.9283Z" fill="#B2D7EF"/>
</g>
<g style="mix-blend-mode:multiply">
<path d="M62.2381 52.985L59.8812 52.9554C59.6534 52.9554 59.4688 53.1406 59.4688 53.369C59.4688 53.5974 59.6534 53.7826 59.8812 53.7826L62.2381 53.8121H62.244C62.4718 53.8121 62.6565 53.627 62.6565 53.3986C62.6565 53.1701 62.4718 52.985 62.244 52.985H62.2381Z" fill="#B2D7EF"/>
</g>
<path d="M104.165 52.6081C103.369 50.3985 102.269 48.3177 101.252 46.2073C101.017 45.7086 100.775 45.21 100.545 44.7054C100.297 44.1548 100.287 44.1442 100.161 43.8062L87.5103 49.2299L85.8805 48.4465L81.7004 46.4294L75.7751 43.564L68.94 40.2673L62.0543 36.9458L55.9628 34.0059L51.5129 31.8601C50.5018 31.3721 49.5579 30.903 48.4678 30.6276C47.34 30.3429 46.2087 30.0711 45.0703 29.8336C42.8029 29.3609 40.5014 29.0206 38.1833 28.971C37.9477 28.971 37.719 28.9651 37.4857 28.971C33.4023 28.9899 29.3543 30.0179 25.945 32.2795L75.3226 54.1879L75.3756 54.2151C75.4236 54.2325 75.4549 54.2789 75.4533 54.3299C75.4517 54.381 75.4175 54.4253 75.3686 54.4396C75.3168 54.464 75.2884 54.5207 75.2999 54.5769C75.3114 54.633 75.3597 54.674 75.4169 54.6759L76.6389 54.6819H76.9925H77.4391H77.6748C77.7502 54.6819 78.1085 54.6736 78.2134 54.67C78.2805 54.67 78.6753 54.6547 78.8026 54.6488L79.274 54.6228L79.7454 54.5861C79.8043 54.5861 80.3346 54.5282 80.377 54.5223C80.5267 54.5046 81.156 54.4042 81.2668 54.3912C81.3186 54.3817 81.6203 54.3238 81.7122 54.3026C81.7653 54.2919 82.0658 54.221 82.1659 54.1962L82.3026 54.1608C82.4452 54.1218 82.5855 54.0816 82.7245 54.0426L83.8724 59.6104C83.969 60.0748 84.0562 60.5498 84.1422 61.0283L86.3978 60.1445C86.4313 60.131 86.469 60.1336 86.5003 60.1516L96.2391 65.3731C96.6752 64.5661 97.0641 63.7401 97.4329 62.9603C97.6686 62.4616 97.8972 61.959 98.1188 61.4525L99.1794 58.9877C99.6614 57.8415 100.141 56.6965 100.652 55.561L99.6072 55.0635L101.23 54.4396C102.184 54.0284 103.222 53.9103 104.279 53.967C104.358 53.5118 104.32 53.0437 104.165 52.6081Z" fill="#EBEBEA"/>
<path d="M69.5022 56.954L69.4574 56.9741L69.5033 57.0013C69.5022 56.9824 69.5022 56.967 69.5022 56.954Z" fill="#EBEBEA"/>
<path d="M73.1248 65.1711C73.1248 65.2006 73.1142 65.2325 73.1083 65.262L73.1613 65.2419C73.1495 65.2183 73.1377 65.1947 73.1248 65.1711Z" fill="#EBEBEA"/>
<path d="M84.6985 57.1171C86.4564 57.1171 87.8815 55.7268 87.8815 54.0118C87.8815 52.2968 86.4564 50.9065 84.6985 50.9065C82.9405 50.9065 81.5154 52.2968 81.5154 54.0118C81.5154 55.7268 82.9405 57.1171 84.6985 57.1171Z" fill="black"/>
<path fill-rule="evenodd" clip-rule="evenodd" d="M133.538 71.5458C134.245 72.562 134.863 73.6172 135.187 74.7882C135.291 75.1655 135.36 75.5515 135.392 75.9415C135.54 77.5414 135.21 79.1767 134.692 80.6679C133.371 84.3753 130.412 87.2605 126.679 88.482C123.42 89.5195 119.828 89.1614 116.623 87.9692C113.418 86.7769 110.561 84.7918 107.947 82.5822C104.294 79.4851 100.932 75.7418 99.533 71.1476C99.0946 69.7037 98.8601 68.2101 98.6797 66.7095L96.2344 65.3802C96.6409 64.6279 97.0053 63.8592 97.3526 63.1267C97.3779 63.0734 97.4031 63.0202 97.4282 62.9673C97.6631 62.4671 97.8917 61.9649 98.1141 61.4607L99.1747 58.9947C99.194 58.9488 99.2133 58.903 99.2325 58.8571C99.6962 57.7536 100.158 56.6548 100.649 55.568L112.491 61.0153L112.481 61.0223L119.309 63.8157C120.303 64.2223 121.38 64.6085 122.488 65.0059C126.609 66.4838 131.166 68.118 133.538 71.5458ZM119.861 85.1947C124.591 85.642 128.847 82.3082 129.558 77.5981C129.726 76.4803 129.672 75.2939 129.172 74.2801C128.488 72.8929 127.056 72.0114 125.59 71.5387C124.659 71.2387 123.692 71.0724 122.724 70.9061C122.167 70.8104 121.61 70.7147 121.06 70.5934C118.784 70.0913 116.762 69.2039 115.183 67.4314C114.99 67.2148 114.8 66.9938 114.611 66.7728C114.005 66.0669 113.399 65.3604 112.667 64.7917C111.208 63.6597 108.206 63.4364 106.692 65.054C105.474 66.3685 104.775 68.0835 104.728 69.8774C104.627 71.5457 104.961 73.2116 105.696 74.7114C107.09 77.5615 109.586 79.6955 112.133 81.5861C114.449 83.3041 116.995 84.9229 119.861 85.1947Z" fill="#E1251B"/>
<path d="M102.481 92.203C100.083 90.3124 97.7417 88.2127 95.7831 85.8223C93.6536 83.2227 92.2937 80.2911 90.777 77.3264C89.2744 74.3937 87.7295 71.481 86.2988 68.5151C84.9082 65.6438 84.5146 62.6909 83.8759 59.5951L82.7281 54.0296C82.6102 54.0663 82.2979 54.1537 82.2567 54.1643C82.1801 54.1856 81.9255 54.247 81.8749 54.2589C81.8065 54.2742 81.1914 54.377 81.1289 54.39L80.9604 54.4172L80.7565 54.4491L80.6552 54.4621C80.4725 54.4869 80.2887 54.5094 80.1036 54.5283H80.06C79.2009 54.6157 78.3206 54.663 77.4391 54.6724H77.3661H76.8475H76.164C76.1487 54.6535 76.124 54.6027 76.1075 54.5744L76.0132 54.5235L75.325 54.1785L74.5719 53.8441L23.2888 54.4148C24.9021 66.5855 27.1529 78.3107 30.2417 85.3532H30.2299C30.303 85.5115 30.3796 85.6734 30.4656 85.8365C31.1302 87.2828 31.8326 88.5152 32.575 89.4912C33.7453 91.2636 35.0722 92.9545 36.2742 94.1066C36.7279 94.5426 37.3702 94.9857 37.9241 94.6903C38.2234 94.5296 38.3955 94.1882 38.683 94.0121C39.7177 93.3811 41.1213 95.2339 42.077 94.4847C42.3209 94.2945 42.4447 93.9743 42.6957 93.7935C43.576 93.1637 44.7851 94.7719 45.7326 94.252C46.1333 94.0322 46.3065 93.4898 46.7296 93.3161C47.4543 93.0207 48.0836 94.0015 48.8567 94.1102C49.7523 94.2366 50.4676 93.1649 51.3704 93.2133C52.2247 93.2594 52.979 94.298 53.7544 93.9294C54.0879 93.771 54.2764 93.3894 54.6052 93.2204C55.5126 92.7655 56.4766 94.2212 57.4441 93.9176C57.8967 93.7758 58.1665 93.2866 58.6014 93.0963C59.7304 92.6012 60.9147 94.3559 62.0614 93.9046C62.4302 93.7592 62.6895 93.4071 63.0489 93.2381C64.1201 92.7348 65.2798 94.0523 66.4441 93.8585C67.0333 93.7604 67.5424 93.2736 68.1434 93.2842C68.8858 93.296 69.4468 94.0582 70.1869 94.1243C71.0884 94.2047 71.8367 93.2334 72.7418 93.3197C73.3393 93.3776 73.8566 93.8987 74.4529 93.8289C75.1388 93.7474 75.6125 92.9085 76.3007 92.9628C76.7886 93.0018 77.1327 93.4827 77.597 93.6328C78.6011 93.9554 79.5026 92.6686 80.5526 92.7418C81.6026 92.8151 82.4005 94.2118 83.3974 93.8762C83.8818 93.7143 84.187 93.1672 84.6843 93.0609C85.382 92.9037 85.9688 93.6517 86.6771 93.7415C87.5845 93.8502 88.3611 92.8482 89.2697 92.9782C89.9556 93.0751 90.4647 93.8053 91.1553 93.7994C91.8458 93.7935 92.3726 93.0443 93.0691 92.9983C94.0119 92.9356 94.8226 94.1882 95.7041 93.8254C96.1048 93.6635 96.3393 93.2074 96.7435 93.0573C97.4164 92.8068 98.0622 93.5099 98.7717 93.6139C99.6991 93.751 100.648 92.847 101.501 93.2429C101.99 93.4697 102.406 94.1007 102.905 93.8963C103.547 93.6434 103.038 92.639 102.481 92.203Z" fill="#D1E7F5"/>
<path d="M86.0679 68.1559C88.6416 73.1628 91.2103 78.178 93.7739 83.2014L86.0679 68.1559Z" fill="#D1E7F5"/>
<path d="M95.9492 25.588C95.9304 25.5179 95.8804 25.4604 95.8137 25.4321C94.6612 24.9384 93.5809 24.2901 92.6024 23.5048C90.8524 22.1105 89.4206 20.4019 88.0806 18.6094C88.0283 18.5395 87.9417 18.5043 87.8555 18.5179C87.7694 18.5315 87.6978 18.5917 87.6694 18.6744C86.9116 20.8604 85.4432 22.8455 83.6732 24.508C82.758 25.3648 81.7725 26.1427 80.727 26.8335C80.6542 26.8818 80.614 26.9667 80.6226 27.0539C80.6313 27.1411 80.6873 27.2164 80.7683 27.2494C80.8696 27.2908 80.971 27.3345 81.0712 27.3806C81.0809 27.3853 81.0912 27.3889 81.1018 27.3912C83.8335 28.1332 86.0266 30.5012 87.3135 32.9661C87.8042 33.9048 88.2009 34.8899 88.4978 35.9071C88.5251 36.0094 88.6169 36.081 88.7224 36.0823C88.828 36.0837 88.9216 36.0145 88.9515 35.913C89.833 33.0878 91.0457 30.3724 93.0349 28.1451C93.8376 27.2338 94.7849 26.4617 95.8385 25.8598C95.9355 25.8085 95.9843 25.6968 95.9563 25.5904L95.9492 25.588Z" fill="#EC9588"/>
<path d="M132.273 59.2689C131.762 59.2694 131.323 58.9041 131.229 58.4001C131.136 57.8962 131.414 57.3969 131.891 57.2129C135.097 55.9698 137.582 53.1859 138.711 49.5761C139.955 45.5999 139.406 41.3048 137.244 38.099C136.916 37.6122 137.043 36.9509 137.529 36.622C138.014 36.2931 138.674 36.4211 139.002 36.908C141.523 40.6513 142.171 45.6248 140.736 50.213C139.412 54.4444 136.467 57.7186 132.656 59.1933C132.534 59.2418 132.404 59.2675 132.273 59.2689Z" fill="#FFA168"/>
<path d="M6.23525 98.657C9.49078 98.657 12.1299 96.0108 12.1299 92.7465C12.1299 89.4823 9.49078 86.8361 6.23525 86.8361C2.97971 86.8361 0.340576 89.4823 0.340576 92.7465C0.340576 96.0108 2.97971 98.657 6.23525 98.657Z" fill="#655DC6"/>
<path d="M0.124895 92.2313C0.0434449 93.9506 0.575741 95.6426 1.62626 97.0039C1.93249 97.3917 2.28291 97.7423 2.67037 98.0484C4.47342 99.4664 7.10493 99.7027 9.15192 98.6676C11.1989 97.6325 12.5695 95.4016 12.6095 93.1057C12.6101 92.3295 12.5119 91.5564 12.3173 90.8051C12.1533 90.0546 11.8872 89.3301 11.5265 88.6522C8.34585 82.9757 0.364123 86.5064 0.124895 92.2313Z" fill="#655DC6"/>
<path d="M52.4946 54.8958L49.8619 63.0986L38.1621 58.7856L42.4635 66.3764L31.7961 68.4466L41.0871 74.4846L35.9254 85.697L49.6899 81.2069L53.9912 90.0052L60.012 82.2408L71.5397 88.1064L72.0559 80.5156L84.9601 86.2087C85.0166 86.2666 78.422 76.2039 78.422 76.2039C78.422 76.146 84.3284 70.9705 84.2718 71.0284L72.4 67.7506L76.7014 57.7446C76.5835 57.7446 60.8723 64.9903 60.8723 64.9903L52.4946 54.8958Z" fill="#FBED00"/>
</svg>
