<svg width="139" height="120" viewBox="0 0 139 120" fill="none" xmlns="http://www.w3.org/2000/svg">
<path d="M19.563 46.9243L17.6516 47.7958C17.4599 47.8825 17.254 47.9836 17.166 48.1739C17.0222 48.4821 17.2864 48.8551 17.6127 48.9509C17.9391 49.0467 18.2861 48.9444 18.606 48.8343C18.9258 48.7243 19.2625 48.6025 19.5966 48.6582C20.0214 48.7295 20.3464 49.0687 20.6067 49.4106C20.867 49.7525 21.1104 50.1306 21.4834 50.3443C21.8563 50.5579 22.4132 50.5307 22.632 50.1604C22.8845 49.7343 22.5647 49.1244 22.8457 48.7165C23.062 48.4018 23.5126 48.3824 23.8946 48.3966L25.3191 48.4459C25.5613 48.4751 25.807 48.4417 26.0326 48.3487C26.4845 48.1143 26.4962 47.3464 26.0507 47.0978C25.7089 46.9074 25.1779 46.9618 25.0303 46.5992C24.9397 46.3791 25.0679 46.1253 25.2453 45.966C25.4227 45.8067 25.6467 45.707 25.8319 45.5594C26.0171 45.4118 26.1647 45.1709 26.1038 44.943C26.0287 44.6542 25.6571 44.6076 25.4408 44.7254C24.7933 45.0764 24.006 45.2732 23.3197 45.5283L21.0703 46.3597C20.573 46.5487 20.046 46.7028 19.563 46.9243Z" fill="#536838"/>
<path d="M58.9908 62.7759C58.8097 62.0931 58.5333 61.4392 58.1698 60.8335C57.8214 60.2702 57.3785 59.7716 57.0134 59.2187C56.5394 58.5039 56.204 57.7087 55.7961 56.9538C53.6452 52.9718 49.6243 50.3132 45.4299 48.6142C45.158 48.5054 44.8847 48.3997 44.6102 48.2969C38.7423 45.4511 32.1267 44.5272 25.7037 45.6565C25.5463 45.7513 25.3953 45.8564 25.2518 45.9712C25.0744 46.1292 24.9462 46.3843 25.0368 46.6044C25.1844 46.967 25.7154 46.9126 26.0572 47.103C26.5027 47.3516 26.4911 48.1195 26.0391 48.3539C25.8135 48.4469 25.5678 48.4803 25.3256 48.4511L23.9011 48.4018C23.5126 48.3876 23.0685 48.4018 22.8522 48.7217C22.5712 49.1296 22.8911 49.7395 22.6385 50.1656C22.4197 50.5359 21.8616 50.5631 21.4899 50.3495C21.1182 50.1358 20.8735 49.7577 20.6132 49.4158C20.3529 49.0739 20.0279 48.7346 19.6031 48.6634C19.269 48.6077 18.9336 48.7295 18.6125 48.8395C18.2913 48.9496 17.9443 49.0519 17.6193 48.9561C17.4009 48.8892 17.228 48.7216 17.1544 48.5054C13.7124 50.2465 10.6255 52.6145 8.05207 55.4879C7.92257 55.6044 7.79307 55.7197 7.67653 55.8375C6.04617 57.3915 4.5207 59.0866 3.40962 61.0472C2.08746 63.3781 1.39336 66.0134 0.88185 68.646C0.265447 71.7695 -0.106207 74.9603 0.027174 78.1459C0.67458 93.6317 12.9035 106.133 28.3713 107.121C29.7388 107.224 31.1133 107.184 32.4725 107.002C48.9056 106.274 62.0054 92.7194 62.0054 76.1102C62.0118 71.4958 60.9815 66.9389 58.9908 62.7759Z" fill="#F09F22"/>
<path d="M20.0486 46.37C19.9541 46.594 19.9412 46.8945 20.1354 47.0395C20.2268 47.097 20.3318 47.1292 20.4397 47.1327C20.6623 47.1524 20.8865 47.1428 21.1066 47.1043C21.6914 47.0023 22.2297 46.7202 22.6463 46.2975C22.8238 46.1175 22.9856 45.8792 22.939 45.6319C22.8916 45.4419 22.7543 45.2871 22.5712 45.2175C22.3904 45.1509 22.1977 45.1227 22.0053 45.1346C21.218 45.1489 20.3672 45.6099 20.0486 46.37Z" fill="#536838"/>
<path d="M23.1876 46.2173C23.1856 46.2097 23.183 46.2024 23.1798 46.1953L23.1604 46.1486C23.1517 46.1227 23.1409 46.0976 23.128 46.0735L22.9208 45.5724C22.9278 45.5918 22.9334 45.6117 22.9377 45.632C22.9843 45.8793 22.8224 46.1176 22.645 46.2976C22.229 46.7198 21.6917 47.0019 21.1079 47.1043C20.8878 47.1429 20.6636 47.1525 20.441 47.1328C20.3331 47.1293 20.228 47.0971 20.1366 47.0396C20.1126 47.0211 20.0909 46.9998 20.0719 46.9761L20.2726 47.4773C20.2961 47.5358 20.3351 47.5868 20.3853 47.6249C20.4762 47.6833 20.5815 47.7156 20.6896 47.7181C20.9117 47.7391 21.1357 47.7295 21.3552 47.6897C21.9401 47.5878 22.4787 47.3063 22.8962 46.8842C23.0723 46.7042 23.2342 46.4659 23.1876 46.2173Z" fill="#F09F22"/>
<path d="M93.5948 67.1504C92.9253 66.1493 91.3933 65.6637 90.4752 66.442C90.8313 64.4542 89.9572 62.4276 88.4732 61.0575L88.8008 61.0731L87.669 60.695V60.7636L87.5318 61.8669V61.9355L86.6007 60.8788L85.4287 61.4538V61.4188L85.6696 60.1433L83.9862 59.8675H83.9175L85.5375 59.6253L84.1739 58.5686L84.161 58.557L84.7062 59.3935C81.8106 59.1863 78.8788 60.9475 77.5023 63.5283C77.8545 61.8786 76.7836 60.1614 75.3151 59.3365C73.8466 58.5116 72.0777 58.4029 70.3942 58.535C69.4968 58.6049 68.5903 58.7396 67.768 59.106C66.732 59.5696 65.88 60.379 65.125 61.2337C63.8757 62.649 62.8213 64.2252 61.9899 65.9201C59.5411 62.0922 53.6477 61.0653 50.049 63.8391C48.0729 61.0472 43.9148 60.322 40.8315 61.8022C37.7482 63.2823 35.7811 66.565 35.2955 69.9514C35.2734 70.1318 35.3242 70.3136 35.4366 70.4564C32.7226 70.076 30.0051 71.1274 28.2538 73.2353C26.5024 75.3432 25.9668 78.2074 26.8381 80.8058C26.671 81.1709 26.3201 80.7099 25.9471 80.8653L29.4578 110.425L88.7529 110.451C89.422 106.143 90.0919 101.836 90.7627 97.5276C90.9725 96.1757 91.1836 94.816 91.1512 93.4485C91.1162 91.6524 91.4931 89.8692 91.55 88.0744C91.6523 84.8266 92.5627 81.6332 91.8349 78.467C91.7223 77.9776 91.55 77.4842 91.6083 76.9843C91.6795 76.3705 92.081 75.8564 92.419 75.341C93.3371 73.9411 93.8667 72.3082 94.1024 70.6506C94.2733 69.4528 94.263 68.1527 93.5948 67.1504Z" fill="#655DC6"/>
<path d="M119.872 49.8237C119.076 50.0786 118.318 50.4378 117.616 50.8921C116.67 51.4744 115.774 52.1336 114.936 52.863C113.77 53.6167 112.864 54.3963 112.06 55.6355C110.296 58.355 108.952 61.2246 106.847 63.7174C103.281 67.9338 98.7656 70.9083 93.7204 72.4571C93.4357 73.4758 92.9991 74.4458 92.4255 75.3345C92.0875 75.8525 91.686 76.3705 91.6148 76.9778C91.5565 77.4777 91.7288 77.9711 91.8414 78.4606C92.5692 81.6268 91.6588 84.8201 91.5565 88.0679C91.5462 88.3774 91.5268 88.6869 91.5009 88.9951C92.4505 88.6282 93.3906 88.2276 94.3213 87.7934C101.266 84.5275 107.353 79.1288 110.576 72.1696C113.378 66.1235 114.226 58.7396 119.336 54.461C120.543 53.4509 121.997 52.5989 122.765 51.2521C123.234 50.7825 123.654 50.2661 124.017 49.7111C122.633 49.5039 121.209 49.4288 119.872 49.8237Z" fill="#FFF100"/>
<g style="mix-blend-mode:multiply">
<path d="M102.271 79.134C102.184 78.8629 101.895 78.7126 101.624 78.7973C101.582 78.8115 98.5545 79.7478 92.0887 80.1427C92.1133 80.4911 92.125 80.8381 92.1237 81.1865C98.7034 80.798 101.763 79.841 101.94 79.784C102.21 79.6952 102.358 79.4049 102.271 79.134Z" fill="#DF9063"/>
</g>
<g style="mix-blend-mode:multiply">
<path d="M119.872 49.8237C119.076 50.0786 118.318 50.4378 117.616 50.8921C116.67 51.4744 115.774 52.1336 114.936 52.863C113.77 53.6167 112.864 54.3963 112.06 55.6355C110.296 58.355 108.952 61.2246 106.848 63.7174C103.281 67.9338 98.7656 70.9096 93.7205 72.4584C93.4351 73.4765 92.9986 74.446 92.4255 75.3345C92.0875 75.8525 91.6861 76.3705 91.6149 76.9778C91.5566 77.4777 91.7288 77.9711 91.8415 78.4606C92.5692 81.6268 91.6589 84.8201 91.5566 88.0679C91.5462 88.3761 91.5268 88.6856 91.5022 88.9938C92.4518 88.6269 93.3915 88.2268 94.3213 87.7934C101.266 84.5275 107.353 79.1288 110.576 72.1696C113.378 66.1234 114.226 58.7396 119.336 54.461C120.543 53.4509 121.997 52.5989 122.765 51.2521C123.234 50.7825 123.654 50.2661 124.017 49.7111C122.633 49.5039 121.209 49.4288 119.872 49.8237Z" fill="url(#paint0_linear)"/>
</g>
<path d="M78.5693 60.8697C82.0265 60.8697 84.8292 58.0671 84.8292 54.6098C84.8292 51.1526 82.0265 48.35 78.5693 48.35C75.1121 48.35 72.3094 51.1526 72.3094 54.6098C72.3094 58.0671 75.1121 60.8697 78.5693 60.8697Z" fill="#655DC6"/>
<path d="M80.4535 13.0583C77.1099 13.4559 74.4384 16.2957 73.3468 19.4813C72.2551 22.667 72.4714 26.1452 72.9479 29.4798C73.3523 32.3192 73.9345 35.1305 74.6909 37.897C76.0144 42.7402 78.3065 47.9136 82.9256 49.8716C86.9737 51.59 91.7404 50.352 95.9219 51.7104C97.9071 52.3579 99.6604 53.5518 101.563 54.4091C103.465 55.2664 105.699 55.7662 107.618 54.9491C109.01 54.356 110.038 53.1582 110.977 51.9707C114.339 47.727 117.242 43.1392 119.638 38.2842C121.088 35.3434 122.369 32.2354 122.561 28.9605C122.752 25.6855 121.699 22.1943 119.165 20.1146C116.728 18.1139 113.35 17.7021 110.201 17.8872C107.053 18.0724 103.933 18.7769 100.782 18.6474C96.1084 18.4726 91.7081 16.5314 87.414 14.6809C85.1983 13.7265 82.8479 12.7734 80.4535 13.0583Z" fill="#E1251B"/>
<path fill-rule="evenodd" clip-rule="evenodd" d="M19.2755 67.3899V69.7273H23.4608L28.3817 111.469H60.1083V111.526H62.4457V111.469H72.1295V111.526H74.4604V111.469H84.1428V111.526H86.4803V111.469H90.3496L92.529 92.9784L92.8049 90.6475L95.2653 69.739H98.4043V67.3899H19.2755ZM92.0939 80.0572H86.4816V70.6545H93.2024L92.0939 80.0572ZM36.066 92.9784H28.1551L29.0072 100.257H36.066V92.9784ZM26.9093 82.4011H36.066V90.6423H27.8793L26.9093 82.4011ZM38.4034 82.3946V90.6423L48.0859 90.6358V82.3946H38.4034ZM48.0859 92.9732V100.252H38.4034V92.9784L48.0859 92.9732ZM48.0859 109.528V102.59L38.4034 102.588V109.528H48.0859ZM38.4034 80.0572V70.6545H48.0859V80.0572H38.4034ZM60.1044 82.3882H50.422V90.6293H60.1044V82.3882ZM50.422 92.9654H60.1044V100.244H50.422V92.9654ZM50.422 70.6545V80.0508L60.1044 80.0572V70.6545H50.422ZM62.4418 82.3817H72.1295V90.6229H62.4418V82.3817ZM72.1295 92.959H62.4418V100.238H72.1295V92.959ZM62.4418 80.0443V70.6545H72.1295V80.0572L62.4418 80.0443ZM84.1441 82.3752H74.4617L74.4604 90.6164H84.1441V82.3752ZM74.4604 92.9784H84.1429V100.257H74.4604V92.9784ZM74.4604 70.6545V80.0637L84.1429 80.0572V70.6545H74.4604ZM36.0647 70.661V80.0637H26.6335L25.5263 70.661H36.0647ZM36.0647 102.595H29.2869L30.1079 109.533H36.0647V102.595ZM50.4207 109.533V102.588H60.1031V109.527L50.4207 109.533ZM62.4405 102.588V109.533L72.1295 109.527V102.588H62.4405ZM74.4604 109.533V102.588H84.1429V109.527L74.4604 109.533ZM86.4803 102.588V109.533L88.6221 109.527L89.4393 102.588H86.4803ZM89.7177 100.257H86.4803V92.9784H90.5724L89.7177 100.257ZM86.4803 82.3946V90.6423L90.8469 90.6358L91.8181 82.3946H86.4803Z" fill="#47B149"/>
<path d="M40.5906 66.9703L41.5812 67.1775C41.5022 67.2501 41.4219 67.32 41.3404 67.3899H44.9352C45.0012 67.2513 45.0647 67.1102 45.1294 66.9703L45.3962 66.3954C45.0996 66.5637 44.8329 66.9017 44.5104 66.9017L44.8821 65.6378C44.7306 65.7492 44.5959 65.959 44.4211 65.959L44.0792 66.3021C44.0924 65.8032 44.0201 65.3057 43.8655 64.8311L43.424 66.2102C43.3424 66.0457 43.275 65.8696 43.1934 65.7052L42.7687 64.9282C42.6569 65.171 42.6122 65.4392 42.6392 65.7052L42.6573 66.2335C42.5615 66.1506 42.4683 66.0639 42.3737 65.9745L41.7004 65.3762L41.7185 65.3995L42.072 66.2503H42.0552L40.8677 65.9745C41.0013 66.1079 41.1573 66.2166 41.3287 66.2957L41.7897 66.6181C41.5709 66.6738 41.3559 66.7787 41.1345 66.7787L40.5906 66.9703Z" fill="black"/>
<path d="M137.861 62.3188C137.414 59.3339 136.478 56.4526 135.644 53.548C135.764 51.638 135.821 49.724 135.802 47.8087C135.763 44.0935 135.275 40.5077 134.74 36.843C134.417 34.6338 133.714 32.9179 132.565 31.3925C131.853 30.4685 131.037 29.6295 130.134 28.8919C129.145 28.0631 128.148 27.2473 127.185 26.39C126.999 26.3131 126.807 26.2525 126.611 26.2087L122.467 30.0367C123.029 30.6608 122.685 30.1131 123.269 30.7191C124.678 32.1798 126.036 33.7998 126.688 35.6905C126.909 36.5098 127.029 37.353 127.046 38.2014C127.085 40.2293 126.672 42.3051 126.223 44.2761C125.675 46.6756 124.605 49.4249 122.765 51.2495C121.997 52.5962 120.543 53.4509 119.336 54.4584C114.226 58.7318 113.379 66.1208 110.576 72.167C107.353 79.1287 101.266 84.5275 94.32 87.7985C87.3738 91.0696 79.6286 92.3309 71.9598 92.4397C71.6322 92.4397 71.3046 92.4474 70.9757 92.4487C70.9763 92.4401 70.9763 92.4315 70.9757 92.4229L68.8675 92.3633C64.159 92.3154 59.3171 92.3633 54.764 93.7075C52.6196 94.342 49.9727 95.2808 48.3268 96.8607C46.8453 98.2787 45.0764 101.99 45.3483 104.048C45.6501 106.372 48.925 112.176 50.8299 113.412C53.8381 115.354 56.9927 116.591 60.3 117.474C62.618 118.38 65.397 118.748 67.7681 118.999L68.545 119.129C68.545 119.113 68.545 119.099 68.545 119.084C75.0198 119.74 80.7475 119.782 87.287 119.873C93.9768 119.968 100.755 119.573 106.985 116.895C110.752 115.275 114.17 112.925 117.291 110.266C128.278 100.905 135.68 87.4424 137.709 73.1512C138.217 69.559 138.398 65.9007 137.861 62.3188Z" fill="#FFF100"/>
<g style="mix-blend-mode:multiply">
<path d="M128.849 31.3083C129.634 30.622 129.968 29.7453 130.04 28.8129C129.083 28.0126 128.119 27.2201 127.185 26.39C126.999 26.3131 126.807 26.2525 126.611 26.2087L122.458 30.0431C123.022 30.6673 122.69 30.1143 123.274 30.7204C123.74 31.2034 124.195 31.7214 124.642 32.2342C125.968 32.6072 128.063 31.9946 128.849 31.3083Z" fill="#DF9063"/>
</g>
<g style="mix-blend-mode:multiply">
<path d="M130.293 50.2756C130.132 50.2763 129.98 50.2025 129.882 50.0757C129.783 49.949 129.749 49.7837 129.789 49.6282C132.313 39.4536 130.143 36.0777 130.121 36.0453C129.96 35.8082 130.023 35.4861 130.26 35.3259C130.497 35.1657 130.819 35.2281 130.979 35.4651C131.08 35.6154 133.428 39.2594 130.795 49.8781C130.74 50.1107 130.532 50.275 130.293 50.2756Z" fill="#DF9063"/>
</g>
<g style="mix-blend-mode:multiply">
<path d="M52.6882 98.0287C50.9374 98.0287 49.2125 98.0054 47.4707 97.8772C47.1345 98.3655 46.8279 98.8736 46.5526 99.3988C46.5992 101.261 46.4982 102.833 46.6277 104.689C47.4371 104.971 48.2322 105.293 49.0299 105.611C49.5047 105.395 49.9821 105.182 50.4621 104.971C51.2831 102.684 52.0886 100.395 52.7102 98.0442L52.6882 98.0287Z" fill="#DF9063"/>
</g>
<g style="mix-blend-mode:multiply">
<path d="M74.0499 105.985C71.9952 105.985 69.8914 105.911 67.7383 105.764C67.4522 105.744 67.2362 105.496 67.2559 105.21C67.2755 104.924 67.5234 104.708 67.8095 104.728C77.9439 105.423 87.0086 104.46 94.7525 101.866C103.521 98.9352 110.886 93.8072 116.648 86.6331C116.829 86.4203 117.147 86.3902 117.366 86.5652C117.584 86.7401 117.624 87.0568 117.456 87.2805C111.569 94.6074 104.041 99.8417 95.0814 102.846C88.8578 104.936 81.8055 105.985 74.0499 105.985Z" fill="#DF9063"/>
</g>
<path d="M130.144 1.70672C129.613 0.653916 128.46 -0.150256 127.295 0.0232688C124.723 0.411758 124.019 4.7719 121.42 4.6955C120.34 4.66442 119.489 3.81492 118.524 3.32931C117.057 2.58832 115.302 2.70593 113.947 3.63612C112.591 4.56631 111.851 6.16123 112.014 7.79694C112.047 8.12715 112.115 8.47032 112.007 8.7837C111.794 9.39751 111 9.6073 110.366 9.47262C109.731 9.33794 109.173 8.9637 108.553 8.76686C106.59 8.14399 104.259 9.76658 104.163 11.8243C104.119 12.7424 104.394 13.8354 103.714 14.4556C103.416 14.7276 103.001 14.8247 102.607 14.9115L101.182 15.2236C101.521 12.8443 101.89 10.4676 102.289 8.09348C101.344 8.10125 100.715 7.89276 99.7679 7.90183C98.8887 11.2493 98.1298 14.7457 97.437 18.2421C97.9369 18.3431 98.4393 18.4273 98.9444 18.4946H98.969L99.3251 18.5387L99.4105 18.5477C99.5245 18.5607 99.6385 18.571 99.7524 18.5814L99.8521 18.5918L100.193 18.6177L100.291 18.6241C100.437 18.6345 100.583 18.6423 100.73 18.6474C102.245 17.0106 104.757 16.2362 106.862 17.0559C108.185 17.5739 109.259 18.571 110.52 19.2224C111.781 19.8738 113.471 20.1004 114.51 19.1343C115.982 17.7656 115.311 14.861 117.036 13.825C118.72 12.8227 121.088 14.6188 122.744 13.5828C124.368 12.5663 123.979 9.60082 125.754 8.88082C126.517 8.57133 127.397 8.83809 128.198 8.64643C129.643 8.30068 130.327 6.64183 130.529 5.16946C130.687 3.99881 130.672 2.75953 130.144 1.70672Z" fill="#47B149"/>
<g style="mix-blend-mode:multiply">
<path d="M131.836 74.3167C131.666 74.3165 131.507 74.2325 131.41 74.092C131.314 73.9516 131.292 73.7727 131.353 73.6135C133.342 68.4091 134.952 62.9625 133.282 58.3899C133.213 58.215 133.244 58.0164 133.363 57.8712C133.483 57.7259 133.672 57.6568 133.857 57.6906C134.042 57.7244 134.194 57.8557 134.254 58.0338C136.042 62.9275 134.384 68.5917 132.321 73.9826C132.244 74.1838 132.052 74.3167 131.836 74.3167Z" fill="#DF9063"/>
</g>
<path d="M118.101 31.1646C118.037 31.1649 117.973 31.1531 117.913 31.1296C117.647 31.026 117.515 30.7266 117.618 30.4602C117.947 29.6094 118.006 28.585 117.777 27.496C117.405 25.7481 116.427 24.1883 115.015 23.0931C114.847 22.9893 114.753 22.7994 114.772 22.6032C114.791 22.407 114.919 22.2385 115.104 22.1685C115.288 22.0985 115.496 22.1392 115.64 22.2734C117.249 23.5215 118.364 25.2994 118.786 27.2914C119.051 28.576 118.98 29.8023 118.579 30.8396C118.5 31.035 118.311 31.1634 118.101 31.1646Z" fill="white"/>
<path d="M105.446 15.1187C105.357 15.1185 105.28 15.0581 105.258 14.9719C105.237 14.8857 105.276 14.7957 105.354 14.7535C106.16 14.3236 106.731 13.6476 107.284 12.9936C107.788 12.3993 108.307 11.7829 109.005 11.3452C109.911 10.7741 110.914 10.8 111.884 10.8272C112.706 10.8479 113.482 10.8686 114.204 10.5526C115.051 10.1836 115.629 9.47653 116.236 8.72933C116.569 8.29598 116.935 7.88862 117.33 7.51077C118.31 6.62243 119.516 6.62372 120.684 6.62631C120.869 6.62631 121.061 6.62631 121.258 6.62631C123.182 6.65221 125.578 6.68717 126.061 4.50387C126.086 4.40147 126.188 4.33773 126.291 4.36023C126.394 4.38272 126.46 4.48324 126.44 4.58674C125.889 7.07955 123.209 7.04717 121.253 7.0148C121.057 7.0148 120.864 7.0148 120.684 7.0148C119.538 7.0148 118.459 7.0148 117.59 7.79178C117.211 8.15336 116.859 8.54295 116.538 8.95725C115.925 9.70703 115.293 10.484 114.359 10.8906C113.558 11.2416 112.701 11.2183 111.873 11.1975C110.919 11.1716 110.019 11.1483 109.212 11.6572C108.565 12.0639 108.087 12.6285 107.58 13.228C107.004 13.9092 106.415 14.6136 105.537 15.0798C105.511 15.1006 105.479 15.114 105.446 15.1187Z" fill="white"/>
<path d="M79.0498 53.5338V53.5752L78.0035 52.4874L78.0449 52.5302L78.2547 53.8251L76.6619 54.1191L78.1679 54.5801L77.5826 55.8349L78.4606 54.9984L78.9216 56.2933V56.0434L78.963 54.8715L79.0472 54.9556L80.2593 56.0007L79.6325 54.7057L80.8459 54.2033H79.7996L79.841 54.1618L80.2593 53.1155L79.6403 53.6179C79.6247 53.5066 79.6131 53.3939 79.5988 53.2825L79.5108 52.5755C79.4706 52.7153 79.4253 52.8539 79.3813 52.9938L79.0498 53.5338Z" fill="black"/>
<path d="M85.9053 59.3157L85.8716 59.3494L84.1467 58.5569L85.5259 59.6252L83.9059 59.8674H83.9745L85.658 60.1432L85.4171 61.4188V61.4537L86.589 60.8788L87.5201 61.9354V61.8668L87.6574 60.7635V60.6949L88.7957 61.0743L88.3437 60.713L88.0031 60.4398C87.9177 60.3724 87.726 60.2727 87.7442 60.1497C87.7623 60.0267 87.9539 59.8907 88.0381 59.7988L87.5732 59.8441C87.4034 59.8831 87.2293 59.9001 87.0552 59.8946C86.9257 59.8726 86.8454 59.7003 86.7703 59.5967C86.7263 59.5372 86.2161 58.9 86.242 58.8677L85.9053 59.3157Z" fill="black"/>
<path d="M57.802 51.7V51.7259L56.5394 51.836L57.6259 51.9798C57.6374 51.9795 57.6483 51.9845 57.6556 51.9933C57.663 52.0022 57.6658 52.0139 57.6635 52.0251L56.8127 52.9315L58.2656 52.4589L59.3353 52.9523L59.1164 52.3048L60.0086 51.8438C59.6461 51.7868 59.2718 51.6547 58.9118 51.7311L59.1358 51.1471L58.5324 51.7052L57.3902 51.2533L57.802 51.7Z" fill="black"/>
<path d="M65.722 58.0144C65.463 56.643 64.5643 55.4788 63.685 54.3949C63.2072 53.8044 62.7112 53.2062 62.0741 52.8203C61.4162 52.4214 60.6587 52.2828 59.9205 52.1637L59.8131 52.1469L60.0034 51.8387L59.1112 52.2997L59.33 52.9472L58.2604 52.4538L56.8074 52.9264L57.6582 52.02C57.6611 52.0077 57.6571 51.9948 57.6479 51.9863H57.6388C57.633 51.9797 57.6243 51.9763 57.6155 51.9772L56.5407 51.8335L56.722 52.1482C56.6728 52.1624 56.6223 52.1767 56.5731 52.1935C55.4751 52.5834 54.6218 53.463 54.2654 54.5723C53.8912 55.7171 54.0958 57.3811 54.325 58.5958C54.6487 60.3129 56.1859 61.5328 57.5106 62.4444C58.623 63.2111 59.848 63.9647 61.1365 63.9246C61.9744 63.8987 62.7552 63.5361 63.4299 63.0531C64.9774 61.9575 66.0975 60.0099 65.722 58.0144Z" fill="#655DC6"/>
<path d="M59.1294 51.151L58.9066 51.7337C58.9631 51.723 59.0202 51.7161 59.0776 51.713L59.1294 51.151Z" fill="#655DC6"/>
<defs>
<linearGradient id="paint0_linear" x1="60.6843" y1="70.1072" x2="118.337" y2="124.025" gradientUnits="userSpaceOnUse">
<stop offset="0.3" stop-color="white"/>
<stop offset="0.36" stop-color="#FEF6E0"/>
<stop offset="0.48" stop-color="#FBE4A4"/>
<stop offset="0.59" stop-color="#F9D675"/>
<stop offset="0.68" stop-color="#F7CC52"/>
<stop offset="0.76" stop-color="#F6C53E"/>
<stop offset="0.82" stop-color="#F6C336"/>
</linearGradient>
</defs>
</svg>
