<svg width="142" height="120" viewBox="0 0 142 120" fill="none" xmlns="http://www.w3.org/2000/svg">
<path d="M37.111 83.0758C37.9321 82.9476 38.5327 82.2356 38.4008 81.3904C38.2707 80.5568 37.4583 79.9912 36.5862 80.1272C35.7141 80.2633 35.1126 81.0496 35.2427 81.8832C35.4378 82.7185 36.2267 83.2137 37.0478 83.0856L37.111 83.0758Z" fill="#FFD9D9"/>
<path d="M2.61895 69.3493L9.8446 115.654C10.2214 118.068 12.544 119.685 15.0705 119.29L55.6837 112.953L55.6743 112.892L114.541 103.706C117.068 103.312 118.788 101.065 118.411 98.6503L113.832 69.3102C109.395 69.6235 105.27 71.6929 102.449 75.0204C99.6282 78.3479 98.3673 82.6322 98.9697 86.8423L99.0168 87.1439C99.6794 91.3583 102.149 95.0938 105.832 97.4527C109.515 99.8116 114.078 100.581 118.426 99.5754C118.292 101.642 116.676 103.361 114.541 103.706L97.2981 106.397C91.5126 102.193 87.6717 95.9933 86.5738 89.0856L86.5268 88.784C85.4554 81.4205 87.5733 73.9155 92.3907 68.0044C97.2082 62.0933 104.308 58.2877 112.049 57.4676L109.317 39.9603C108.94 37.5455 106.618 35.9289 104.091 36.3232L17.1801 49.8854L19.7697 49.4813C20.202 50.2939 20.8208 51.0005 21.5804 51.5487L21.7162 51.5894C23.4924 52.8104 25.8125 53.0604 27.8561 52.2513C29.8997 51.4422 31.3788 49.6879 31.7705 47.6086L36.8235 46.8201C36.7742 48.9922 36.0745 51.1421 34.5509 52.9878C30.8522 57.8938 23.8412 58.9878 18.7604 55.4518L18.6247 55.4111C16.8271 54.1097 15.4875 52.3148 14.7799 50.2599L4.54767 51.8566C2.02119 52.2509 0.301479 54.4983 0.678306 56.9131L2.61895 69.3493ZM44.032 76.4301C43.9246 76.5705 43.7539 76.7209 43.5013 76.7603C43.3118 76.7899 43.1034 76.6987 42.8951 76.6075C42.7499 76.5065 42.6585 76.3351 42.6208 76.0936C42.5926 75.9125 42.5643 75.7313 42.7255 75.5206C42.8962 75.3703 43.0762 75.2804 43.3289 75.2409C43.5184 75.2114 43.7078 75.1818 43.8624 75.3432C44.017 75.5046 44.1716 75.6661 44.2093 75.9076C44.2376 76.0887 44.1395 76.2896 44.032 76.4301ZM44.2675 77.9393L45.0494 82.95L43.9125 83.1274L43.14 78.1771L44.3401 77.9898L44.2675 77.9393ZM50.278 98.2128L50.7019 100.929L21.2052 105.532L20.7719 102.755L50.2685 98.1524L50.278 98.2128ZM50.1499 78.3199C49.9981 78.591 49.9915 78.9633 50.0857 79.567L50.4814 82.1023L49.2813 82.2896L48.8574 79.5731C48.7161 78.6675 48.388 78.2237 47.8196 78.3124C47.5038 78.3617 47.2068 78.5318 47.1182 78.793C47.0389 79.1146 47.0229 79.4265 47.1171 80.0302L47.5128 82.5656L46.2495 82.7627L45.477 77.8124L46.7403 77.6153L46.8062 78.0379C46.958 77.7669 47.1918 77.6066 47.3625 77.4563L47.9753 77.237C48.6069 77.1384 49.0236 77.3209 49.4779 77.7447C49.7815 77.2027 50.2491 76.8822 50.8807 76.7836C52.0808 76.5963 52.7623 77.2321 52.9696 78.5603L53.45 81.6391L52.2499 81.8263L51.826 79.1098C51.7506 78.6269 51.7035 78.3248 51.4763 78.1129C51.3218 77.9515 51.1134 77.8603 50.7976 77.9096C50.4818 77.9589 50.248 78.1191 50.1594 78.3803L50.1499 78.3199ZM56.6026 80.2815C57.2342 80.183 57.5472 79.701 57.4153 78.8558L56.9725 76.0186L58.1726 75.8313L58.6154 78.6686C58.6813 79.0912 58.7379 79.4536 58.6586 79.7751C58.385 80.5906 57.6463 81.1877 56.7627 81.3077C56.1311 81.4062 55.5975 81.3039 55.0988 81.0107C54.8511 80.8634 54.6428 80.6634 54.4899 80.4256C54.3259 80.2039 54.2062 79.8513 54.1309 79.3683L53.6881 76.5311L54.9514 76.334L55.3941 79.1712C55.526 80.0164 55.8984 80.3296 56.5931 80.2212L56.6026 80.2815ZM61.1318 75.3077L61.7446 75.0883C62.3762 74.9898 62.856 75.1624 63.2472 75.5961C63.5508 75.054 64.0816 74.7237 64.7132 74.6251C65.9133 74.4378 66.5854 75.0132 66.802 76.4018L67.2825 79.4805L66.0192 79.6777L65.5953 76.9612C65.52 76.4782 65.4728 76.1762 65.3088 75.9544C65.1542 75.793 64.8827 75.7116 64.6301 75.7511C64.3143 75.8003 64.0173 75.9704 63.9287 76.2316C63.84 76.4928 63.8334 76.8648 63.9276 77.4685L64.3233 80.0042L63.06 80.2013L62.6267 77.4244C62.4854 76.5189 62.1574 76.0751 61.6521 76.1539C61.2731 76.2131 61.0393 76.3733 60.9507 76.6345C60.8714 76.956 60.7922 77.2778 60.8864 77.8815L61.2821 80.4169L60.082 80.6042L59.3095 75.6539L60.5728 75.4568L60.6387 75.8794C60.7724 75.6665 60.9386 75.4737 61.1318 75.3077ZM89.7093 52.7906C87.0407 53.207 84.5548 51.4769 84.1567 48.9262C83.7587 46.3756 85.5994 43.9703 88.268 43.5539C90.9365 43.1375 93.4225 44.8676 93.8205 47.4182C94.2185 49.9689 92.3779 52.3742 89.7093 52.7906ZM39.3409 78.7081L40.2883 78.5602L40.0057 76.7491L41.269 76.552L41.5516 78.3631L42.4358 78.2251L42.6054 79.3117L41.7211 79.4496L42.3335 83.3738L41.0702 83.5709L40.4579 79.6468L39.5105 79.7946L39.3409 78.7081ZM34.134 82.2414L33.7006 79.4645L34.9007 79.2773L34.9667 79.6999C35.3617 79.3291 35.8387 79.069 36.4072 78.9803C37.9231 78.7438 39.3747 79.7542 39.6008 81.2031C39.7314 82.1711 39.3025 83.1378 38.4807 83.7286C37.6588 84.3194 36.5732 84.4409 35.6449 84.0464L36.116 87.0651L34.9159 87.2524L34.134 82.2414ZM27.9064 82.9661C27.9104 81.636 28.9282 80.4945 30.3018 80.2802C31.6753 80.0658 32.9925 80.8429 33.4015 82.1086C33.3976 83.4388 32.3797 84.5799 31.0062 84.7943C29.6326 85.0086 28.3155 84.2318 27.9064 82.9661ZM17.4834 78.7796L24.4313 77.6954L25.0907 81.9211C24.6412 82.646 24.0315 83.2694 23.305 83.746C23.1155 83.7756 22.3858 84.0748 22.0456 83.1385C22.798 82.1553 22.5492 81.3902 22.3032 81.0575L22.85 80.4155C22.85 80.4155 23.0301 80.3256 23.1027 80.3761C23.2478 80.4771 23.608 80.2975 23.2357 79.9846C23.1631 79.934 23.0273 79.8934 22.7841 79.9932C22.5946 80.0227 22.2533 80.3231 21.9309 80.7445C21.369 80.4611 20.6299 80.7001 20.1435 80.8997C19.3856 81.2407 18.6701 81.6638 18.011 82.1603L17.4834 78.7796ZM21.5215 83.0966L21.1896 83.4576C21.1896 83.4576 21.199 83.518 21.0633 83.4773C21.035 83.2962 20.8899 83.1951 20.6023 83.4255L19.851 83.1717L18.847 82.9572L18.1777 82.8143C17.8968 82.6726 18.257 82.493 18.3645 82.3525L18.9584 82.0124C19.0659 81.872 19.723 81.522 20.2094 81.3224C20.579 81.2029 21.2992 80.8431 21.7253 81.0858C21.7253 81.0858 21.2162 81.9692 21.5121 83.0362L21.5215 83.0966ZM22.0345 81.4087C22.0345 81.4087 22.255 81.9925 21.8882 82.5445C21.8506 82.303 21.8921 81.7401 22.0345 81.4087ZM17.5461 82.9128C17.5461 82.9128 17.565 83.0336 17.7007 83.0743C17.9816 83.2159 18.8498 83.3898 18.9762 83.37C19.1119 83.4107 20.0433 83.5747 20.6683 83.8482C20.8134 83.9492 20.7503 83.9591 20.6965 84.0294C20.7154 84.1501 20.8068 84.3211 20.9331 84.3014L21.0877 84.4628C21.2168 84.8755 21.5637 85.44 21.7371 85.7222C21.9831 86.0548 22.2734 86.2567 22.4186 86.3577C22.7721 86.5499 23.0153 86.4501 22.9494 86.0275L22.6469 85.3328C22.6186 85.1517 22.3255 84.5172 21.5271 83.9616C21.3913 83.9209 21.3819 83.8605 21.4988 83.7805L21.7769 83.4897C22.1615 84.2954 22.7487 84.3273 23.3615 84.108C23.9743 83.8887 24.8813 83.0669 25.6054 81.9026L25.7223 81.8225C25.7317 81.8829 25.8137 81.9938 25.7156 82.1947L25.2226 82.7664L26.1364 88.6224L19.1886 89.7066L18.2182 83.4883L17.7384 83.3158C17.5206 83.1642 17.5018 83.0434 17.5461 82.9128ZM21.4761 84.464C21.4761 84.464 21.9748 84.7574 22.249 85.2712C22.7062 86.1275 22.3244 85.7542 22.2518 85.7037C22.0341 85.5522 21.6683 84.8669 21.4761 84.464Z" fill="#FFD9D9"/>
<path d="M30.8579 84.0514C31.7422 83.9134 32.3428 83.2014 32.2109 82.3562C32.0808 81.5227 31.2683 80.957 30.3963 81.0931C29.5242 81.2292 28.9227 82.0155 29.0528 82.849C29.1752 83.6338 30.0368 84.1796 30.8579 84.0514Z" fill="#FFD9D9"/>
<path d="M20.7813 102.816L50.2779 98.2128L50.7113 100.99L21.2146 105.593L20.7813 102.816ZM31.0369 85.1984C32.5527 84.9618 33.6276 83.5575 33.4109 82.169C33.1846 80.7186 31.771 79.7345 30.2535 79.9713C28.7361 80.2081 27.6895 81.5761 27.9158 83.0265C28.1419 84.4754 29.5841 85.4251 31.0369 85.1984ZM29.1065 82.7788C28.979 81.9619 29.5685 81.1915 30.4231 81.0582C31.2778 80.9248 32.074 81.479 32.2014 82.2959C32.3315 83.1294 31.73 83.9154 30.8579 84.0515C29.9858 84.1876 29.1734 83.6222 29.0433 82.7887L29.1065 82.7788ZM35.6449 84.0463C36.1341 84.2792 36.6583 84.3212 37.2267 84.2325C38.7426 83.9959 39.8269 82.652 39.6008 81.2031C39.4718 80.2157 38.7702 79.3906 37.7887 79.0723C36.8072 78.7539 35.7146 78.997 34.9666 79.6999L34.9007 79.2772L33.7006 79.4645L34.9065 87.192L36.1065 87.0047L35.6355 83.986L35.6449 84.0463ZM35.2964 81.8129L35.2587 81.5714C35.3566 80.833 35.9935 80.2614 36.7684 80.2167C37.5433 80.172 38.232 80.6673 38.4007 81.3903C38.5308 82.2239 37.9293 83.0098 37.0572 83.1459C36.1851 83.282 35.3727 82.7167 35.2426 81.8831L35.2964 81.8129ZM41.0702 83.5709L42.3334 83.3737L41.7211 79.4496L42.6054 79.3116L42.4358 78.2251L41.5515 78.3631L41.2689 76.552L40.0057 76.7491L40.2883 78.5602L39.3409 78.708L39.5104 79.7946L40.4579 79.6467L41.0702 83.5709ZM43.8718 75.4036C43.7172 75.2422 43.5183 75.2113 43.2657 75.2507C43.0762 75.2803 42.8867 75.3099 42.7255 75.5206L42.6208 76.0936C42.6585 76.3351 42.6868 76.5163 42.8951 76.6075C43.1034 76.6986 43.3118 76.7898 43.5644 76.7504C43.7539 76.7208 43.9245 76.5705 44.032 76.43C44.1395 76.2896 44.2375 76.0887 44.1999 75.8472C44.1716 75.6661 44.017 75.5046 43.8624 75.3432L43.8718 75.4036ZM43.5169 80.592L43.9125 83.1273L45.1126 82.9401L44.3401 77.9898L43.0769 78.1869L43.5169 80.592ZM50.7882 77.8492C51.104 77.7999 51.3123 77.8911 51.4669 78.0525C51.6309 78.2743 51.7506 78.6268 51.8166 79.0494L52.2499 81.8263L53.5131 81.6292L53.0327 78.5504C52.8254 77.2222 52.0808 76.5963 50.8807 76.7836C50.2491 76.8821 49.7815 77.2026 49.4779 77.7447C49.1118 77.3286 48.5386 77.1348 47.9752 77.237C47.6594 77.2862 47.4699 77.3158 47.3625 77.4563C47.1918 77.6066 46.958 77.7669 46.8062 78.0379L46.7308 77.5549L45.4676 77.752L46.2495 82.7626L47.5127 82.5655L47.1171 80.0302C47.0229 79.4265 47.0389 79.1145 47.1181 78.793C47.2699 78.5219 47.5037 78.3617 47.8195 78.3124C48.388 78.2237 48.7161 78.6675 48.8574 79.573L49.2813 82.2895L50.5445 82.0924L50.1489 79.5571C50.0547 78.9534 49.9981 78.5909 50.1499 78.3199C50.2386 78.0587 50.4723 77.8984 50.7882 77.8492ZM54.8787 76.2834L53.6787 76.4707L54.1308 79.3683C54.2062 79.8513 54.3259 80.2038 54.4899 80.4256C54.5908 80.6572 54.8179 80.8689 55.0988 81.0106C55.5343 81.3137 56.131 81.4062 56.7627 81.3076C57.3943 81.2091 57.8713 80.949 58.1938 80.5277C58.4181 80.3071 58.57 80.0363 58.6586 79.7751L58.6153 78.6685L58.1726 75.8312L56.9093 76.0284L57.3521 78.8656C57.484 79.7108 57.2247 80.1225 56.5931 80.2211C55.8983 80.3295 55.4628 80.0262 55.3309 79.181L54.8882 76.3438L54.8787 76.2834ZM59.3001 75.5935L60.082 80.6041L61.3452 80.407L60.9496 77.8716C60.8554 77.2679 60.8082 76.9659 60.9506 76.6344C61.0393 76.3732 61.2731 76.213 61.652 76.1539C62.1573 76.075 62.5485 76.509 62.6899 77.4145L63.1138 80.131L64.3138 79.9437L63.9182 77.4084C63.824 76.8047 63.8306 76.4324 63.9192 76.1712C64.071 75.9001 64.3048 75.7399 64.6207 75.6906C64.8733 75.6512 65.1448 75.7326 65.3088 75.9544C65.4634 76.1158 65.5737 76.4079 65.6491 76.8909L66.0824 79.6678L67.2825 79.4805L66.802 76.4017C66.5948 75.0736 65.8501 74.4476 64.7132 74.6251C64.0815 74.7236 63.5508 75.0539 63.2472 75.596C62.8811 75.18 62.3079 74.9862 61.7446 75.0883C61.4919 75.1277 61.2393 75.1672 61.1318 75.3076C60.9154 75.472 60.7276 75.6685 60.5755 75.8892L60.5002 75.4062L59.3001 75.5935ZM21.9308 80.7445C22.2533 80.3231 22.5946 80.0227 22.7841 79.9931C23.0273 79.8933 23.1631 79.934 23.2356 79.9845C23.6174 80.3578 23.2478 80.4771 23.1026 80.376L22.7868 80.4253L22.24 81.0673C22.5492 81.3901 22.798 82.1552 22.0456 83.1384C22.3858 84.0748 23.1155 83.7755 23.305 83.746C23.782 83.486 24.4552 82.8241 25.0906 81.921L24.4312 77.6953L17.4834 78.7795L18.0109 82.1602C18.6701 81.6638 19.3856 81.2407 20.1434 80.8997C20.6299 80.7001 21.369 80.4611 21.9308 80.7445Z" fill="#EE3124"/>
<path d="M22.0346 81.4087C21.861 81.7645 21.8098 82.1623 21.8883 82.5445C22.2645 82.0529 22.0346 81.4087 22.0346 81.4087ZM22.2491 85.2712C21.9654 84.6971 21.4761 84.4641 21.4761 84.4641C21.6684 84.8669 22.0341 85.5522 22.2519 85.7037C22.2613 85.7641 22.7062 86.1275 22.2491 85.2712Z" fill="#EE3124"/>
<path d="M18.2182 83.4882L19.1885 89.7065L26.1363 88.6223L25.2225 82.7663L25.7156 82.1946C25.8136 81.9938 25.7948 81.873 25.6591 81.8323L25.6779 81.9531C25.095 82.8728 24.2794 83.6386 23.3077 84.1781C22.6855 84.3371 22.1708 84.3557 21.7769 83.4896L21.4356 83.7902L21.4638 83.9714C21.9848 84.3086 22.3946 84.7802 22.6468 85.3328L22.9493 86.0274C23.0152 86.45 22.772 86.5499 22.3554 86.3675L21.737 85.7221C21.5005 85.4498 21.2167 84.8755 21.0876 84.4627C21.0594 84.2816 21.0056 84.3518 20.933 84.3013C20.8067 84.321 20.7153 84.15 20.7596 84.0194L20.6682 83.8481C20.0432 83.5746 19.1213 83.471 18.9761 83.37L17.6375 83.084L17.5461 82.9128C17.5017 83.0434 17.5837 83.1543 17.7383 83.3157L18.2182 83.4882Z" fill="#EE3124"/>
<path d="M20.2094 81.3222L18.8952 82.0221L18.3645 82.3523C18.257 82.4927 17.8968 82.6724 18.2409 82.8042L18.9102 82.9472L19.851 83.1715L20.5391 83.4352C20.8899 83.1949 21.035 83.296 21.1265 83.4672C21.1359 83.5276 21.1265 83.4672 21.1896 83.4574L21.5121 83.036C21.2162 81.969 21.7347 81.146 21.7347 81.146C21.2992 80.8429 20.579 81.2027 20.2094 81.3222ZM86.5899 88.7739L86.637 89.0755C87.758 96.2596 91.7441 102.316 97.2981 106.397L114.541 103.706C116.752 103.361 118.285 101.576 118.426 99.5752C114.076 100.6 109.503 99.8389 105.815 97.4768C102.127 95.1146 99.6613 91.3669 99.0167 87.1437L98.9697 86.8421L86.5899 88.7739Z" fill="#EE3124"/>
<path d="M86.59 88.7741L98.9697 86.8423C98.3839 82.624 99.6591 78.338 102.49 75.0109C105.321 71.6839 109.452 69.6153 113.895 69.3003L112.049 57.4676L110.723 57.6746C95.1925 60.0291 84.3856 73.924 86.5268 88.7839L86.59 88.7741Z" fill="#FC827A"/>
<path d="M21.5804 51.5487C20.8426 50.991 20.2457 50.2814 19.8328 49.4714L14.7799 50.2599C15.4792 52.2533 16.8006 54.0879 18.6246 55.4111L21.5804 51.5487Z" fill="#EE3124"/>
<path d="M18.7604 55.4518C22.1559 57.7818 26.6428 58.1082 30.4256 56.3005C34.2084 54.4929 36.6693 50.8463 36.8234 46.82L31.7705 47.6085C31.3951 49.6952 29.9247 51.4634 27.8812 52.2855C25.8377 53.1076 23.5104 52.8674 21.7256 51.6497L21.5804 51.5487L18.6246 55.4111L18.7604 55.4518Z" fill="#FC827A"/>
<path d="M89.6999 52.7302C92.351 52.3165 94.1797 49.9271 93.7843 47.3932C93.3889 44.8592 90.9191 43.1402 88.268 43.5539C85.6168 43.9676 83.7882 46.3573 84.1836 48.8913C84.5791 51.4253 87.0488 53.1439 89.6999 52.7302Z" fill="#FC827A"/>
<path fill-rule="evenodd" clip-rule="evenodd" d="M106.553 29.5839C106.166 29.511 105.911 29.138 105.984 28.7508L109.538 9.87747C109.611 9.49027 109.984 9.2355 110.372 9.30842C110.759 9.38135 111.014 9.75435 110.941 10.1416L107.386 29.0149C107.313 29.4021 106.94 29.6569 106.553 29.5839Z" fill="#EE3124"/>
<path fill-rule="evenodd" clip-rule="evenodd" d="M116.691 37.9441C116.535 37.582 116.703 37.1625 117.065 37.007L132.398 30.4201C132.76 30.2646 133.179 30.432 133.335 30.794C133.491 31.156 133.323 31.5756 132.961 31.7311L117.628 38.318C117.266 38.4735 116.846 38.3061 116.691 37.9441Z" fill="#EE3124"/>
<path fill-rule="evenodd" clip-rule="evenodd" d="M112.064 32.7492C112.357 33.0132 112.808 32.9902 113.072 32.6978L130.832 13.0289C131.096 12.7364 131.073 12.2853 130.781 12.0212C130.488 11.7572 130.037 11.7802 129.773 12.0726L112.013 31.7416C111.749 32.034 111.772 32.4851 112.064 32.7492Z" fill="#EE3124"/>
</svg>
