<svg width="133" height="120" viewBox="0 0 133 120" fill="none" xmlns="http://www.w3.org/2000/svg">
<path fill-rule="evenodd" clip-rule="evenodd" d="M119.377 77.2847C116.722 77.3366 114.087 77.8813 111.339 77.8813C111.338 77.8813 24.0459 77.8813 24.0452 77.8811C19.4326 77.5612 14.9385 76.5245 10.6182 78.7115C7.36709 80.3571 4.71204 83.4729 4.71204 87.2619C4.71204 92.848 10.3918 97.3764 17.3981 97.3764C17.4519 97.3764 17.5049 97.3737 17.5586 97.3764C17.5586 97.3764 119.287 97.3764 119.287 97.3746C119.317 97.3748 119.345 97.3764 119.374 97.3764C126.38 97.3764 132.06 92.848 132.06 87.2621C132.06 82.5149 128.184 79.1702 123.934 77.8594C122.392 77.3841 120.881 77.2553 119.377 77.2847Z" fill="#231F20"/>
<path fill-rule="evenodd" clip-rule="evenodd" d="M66.0516 120C102.531 120 132.103 116.668 132.103 112.557C132.103 108.447 102.531 105.115 66.0516 105.115C29.5723 105.115 0 108.447 0 112.557C0 116.668 29.5723 120 66.0516 120Z" fill="black" fill-opacity="0.2"/>
<path fill-rule="evenodd" clip-rule="evenodd" d="M34.2825 105.322C34.2435 105.334 34.203 105.337 34.1634 105.346C34.1221 105.666 34.096 105.989 34.0907 106.315C34.0888 106.43 34.3353 105.219 34.2825 105.322Z" fill="#626366"/>
<path fill-rule="evenodd" clip-rule="evenodd" d="M30.8915 99.1484L30.3123 107.236C30.2435 108.198 30.9674 109.033 31.9293 109.102C32.8914 109.171 33.7272 108.447 33.796 107.486L33.9468 105.378C34.02 105.373 34.0915 105.36 34.1634 105.344C34.4167 103.371 35.3104 101.496 36.4084 99.8199C36.5208 99.6483 36.6354 99.4695 36.6729 99.2691C34.7847 99.5583 32.8244 99.3136 30.8915 99.1484Z" fill="#626366"/>
<path fill-rule="evenodd" clip-rule="evenodd" d="M38.3946 108.699C38.3946 111.857 35.5368 114.418 32.0114 114.418C28.486 114.418 25.6283 111.857 25.6283 108.699C25.6283 105.54 28.486 102.979 32.0114 102.979C35.5368 102.979 38.3946 105.54 38.3946 108.699Z" fill="#DEE0DE"/>
<path fill-rule="evenodd" clip-rule="evenodd" d="M33.5771 109.519C33.5771 110.151 33.0649 110.663 32.433 110.663H31.59C30.958 110.663 30.4458 110.151 30.4458 109.519C30.4458 108.887 30.958 108.375 31.59 108.375H32.433C33.0649 108.375 33.5771 108.887 33.5771 109.519Z" fill="#EC1D24"/>
<path fill-rule="evenodd" clip-rule="evenodd" d="M101.712 99.3691C102.302 100.17 103.01 100.889 103.647 101.657C104.493 102.677 105.247 103.865 105.321 105.188C105.329 105.327 105.312 105.496 105.188 105.559C105.359 105.526 105.528 105.484 105.695 105.435L105.842 107.487C105.911 108.448 106.746 109.172 107.708 109.103C108.67 109.034 109.394 108.199 109.325 107.237L108.771 99.4895C106.424 99.6506 104.072 99.4577 101.712 99.3691Z" fill="#626366"/>
<path fill-rule="evenodd" clip-rule="evenodd" d="M101.243 108.699C101.243 111.857 104.101 114.418 107.627 114.418C111.152 114.418 114.01 111.857 114.01 108.699C114.01 105.54 111.152 102.979 107.627 102.979C104.101 102.979 101.243 105.54 101.243 108.699Z" fill="#DEE0DE"/>
<path fill-rule="evenodd" clip-rule="evenodd" d="M109.192 109.519C109.192 110.151 108.68 110.663 108.048 110.663H107.205C106.573 110.663 106.06 110.151 106.06 109.519C106.06 108.887 106.573 108.375 107.205 108.375H108.048C108.68 108.375 109.192 108.887 109.192 109.519Z" fill="#EC1D24"/>
<path fill-rule="evenodd" clip-rule="evenodd" d="M132.014 88.0984C131.481 93.2932 126.028 97.3772 119.375 97.3772C119.346 97.3772 119.317 97.3756 119.288 97.3755C119.288 97.3772 17.5594 97.3772 17.5594 97.3772C17.5056 97.3745 17.4528 97.3772 17.3988 97.3772C10.3925 97.3772 4.71275 92.8488 4.71275 87.2628C4.71275 86.788 4.75448 86.3239 4.83392 85.8721C4.79557 85.9322 4.7677 86.0069 4.75287 86.0989C4.55227 87.3432 4.71275 92.039 4.71275 92.039L4.74079 92.0657C5.15634 97.3524 10.663 101.539 17.3988 101.539C17.4528 101.539 17.5056 101.536 17.5594 101.535V101.539H119.288V101.537C119.317 101.537 119.346 101.539 119.375 101.539C126.381 101.539 132.061 97.0101 132.061 91.4243C132.061 91.1423 132.043 90.8643 132.014 90.5884V88.0984Z" fill="#A67B50"/>
<path fill-rule="evenodd" clip-rule="evenodd" d="M79.4987 34.5455C78.1127 31.7403 77.495 28.3707 76.6607 25.3629C75.7676 22.1434 75.0236 18.8832 74.2052 15.6448C72.8726 10.3713 70.7774 3.26371 65.4355 0.700637C59.4065 -2.19214 56.5363 4.5226 54.9284 8.99995C53.7587 12.2573 52.8528 15.6262 51.8311 18.9323C50.8101 22.2368 48.951 25.502 49.2682 29.0569C49.4216 30.7765 52.1295 30.7914 51.9747 29.0569C51.7211 26.2149 53.1017 23.6563 53.9958 21.0377C54.98 18.1552 55.8078 15.2142 56.696 12.3012C57.4942 9.68329 58.4252 7.13387 59.7778 4.74545C61.4783 1.74325 64.5603 2.71115 66.5439 4.91079C70.2103 8.97617 71.2486 14.96 72.5164 20.086C73.2332 22.9836 73.9468 25.8852 74.8279 28.7381C75.5734 31.1524 76.0342 33.626 77.1619 35.9079C77.9334 37.4693 80.2673 36.101 79.4987 34.5455Z" fill="#A81C20"/>
<path fill-rule="evenodd" clip-rule="evenodd" d="M46.027 62.5629L67.4619 54.101L55.8979 25.0874L34.4342 33.5935L46.027 62.5629Z" fill="#BBE2F7"/>
<path fill-rule="evenodd" clip-rule="evenodd" d="M34.4229 33.6285L45.1652 29.3693L47.8737 18.4136L37.8468 22.389L34.4229 33.6285Z" fill="#BBE2F7"/>
<path fill-rule="evenodd" clip-rule="evenodd" d="M47.8698 18.4146L55.8934 25.1153L44.989 29.4386L47.8698 18.4146Z" fill="#FEFEFE"/>
<path fill-rule="evenodd" clip-rule="evenodd" d="M46.0034 62.5967L56.57 58.4073L44.993 29.4438L34.4261 33.6235L46.0034 62.5967Z" fill="#7DCDF0"/>
<path fill-rule="evenodd" clip-rule="evenodd" d="M47.8694 18.4146L55.9086 25.1058L44.9923 29.45L47.8694 18.4146Z" fill="#7DCDF0"/>
<path fill-rule="evenodd" clip-rule="evenodd" d="M37.8201 22.4568L37.2487 21.023C37.1553 20.7884 37.24 20.5345 37.4383 20.4559L46.7942 16.7465C46.9924 16.6679 47.2289 16.7943 47.3223 17.0289L47.8776 18.4221L37.8201 22.4568Z" fill="#7DCDF0"/>
<path fill-rule="evenodd" clip-rule="evenodd" d="M64.7508 21.1699C66.2757 22.4309 68.5284 22.1312 70.4105 22.7484C73.709 23.8304 75.9236 27.1756 77.3994 30.1182C78.4406 32.1939 79.5151 34.6547 79.0972 37.081C78.8726 38.3833 78.0367 39.3107 77.6407 40.5231C77.1742 41.9512 77.4859 43.5318 77.4514 45.0003C77.4065 46.9127 76.611 49.1663 74.7355 49.567C72.6713 50.0081 71.0317 47.9643 69.2111 46.8987C66.326 45.2105 62.8832 45.916 60.269 43.6058C58.9513 42.4414 57.9715 40.9478 57.097 39.4236C55.6789 36.9522 53.8577 33.8711 53.351 31.0348C52.9415 28.742 55.0053 27.1615 56.3914 25.6124C57.5052 24.3677 57.5591 22.5426 57.9884 20.93C58.4177 19.3177 59.7493 17.5872 61.3866 17.9294C62.9429 18.2548 63.5264 20.1575 64.7508 21.1699Z" fill="#F8D436"/>
<path fill-rule="evenodd" clip-rule="evenodd" d="M95.497 20.6709L74.8346 51.5788C74.8346 51.5788 93.9131 59.5994 101.105 48.8659C108.296 38.1327 108.452 30.5839 95.497 20.6709Z" fill="#EB9487"/>
<path fill-rule="evenodd" clip-rule="evenodd" d="M97.8758 17.1758L95.5204 20.6912C108.451 30.5953 108.292 38.1415 101.105 48.8685C93.9136 59.602 74.8353 51.5814 74.8353 51.5814L74.8734 51.5241C74.8704 51.523 74.868 51.521 74.8651 51.5196L72.6099 54.8856C72.6099 54.8856 96.1248 64.7691 104.89 51.6862C113.656 38.6031 113.667 29.2588 97.8758 17.1758Z" fill="#48B648"/>
<path fill-rule="evenodd" clip-rule="evenodd" d="M97.5999 32.9105C98.5588 33.5497 99.5437 33.7576 99.8 33.375C100.056 32.9925 99.4869 32.1643 98.5282 31.5253C97.5693 30.8862 96.584 30.6783 96.3279 31.0608C96.0716 31.4434 96.6411 32.2715 97.5999 32.9105Z" fill="#231F20"/>
<path fill-rule="evenodd" clip-rule="evenodd" d="M88.6902 46.2085C89.6491 46.8477 90.634 47.0554 90.8903 46.673C91.1466 46.2904 90.5772 45.4622 89.6183 44.8232C88.6596 44.1842 87.6743 43.9761 87.418 44.3587C87.1619 44.7412 87.7314 45.5693 88.6902 46.2085Z" fill="#231F20"/>
<path fill-rule="evenodd" clip-rule="evenodd" d="M93.1454 39.5614C94.1043 40.2006 95.0893 40.4085 95.3456 40.0259C95.6019 39.6433 95.0324 38.8152 94.0737 38.1762C93.1148 37.5371 92.1296 37.3292 91.8734 37.7117C91.6171 38.0943 92.1866 38.9224 93.1454 39.5614Z" fill="#231F20"/>
<path fill-rule="evenodd" clip-rule="evenodd" d="M39.7117 39.3176C39.982 37.592 38.5048 35.9473 36.9977 36.3299C36.7125 36.4024 36.4173 36.1294 36.2526 35.8861C36.0611 35.6035 36.1332 35.2278 36.1916 34.8917C36.5676 32.7231 35.9771 30.3609 34.4593 28.7633C32.9414 27.1658 30.4821 26.4542 28.402 27.1891C28.7251 25.4757 28.1689 23.6206 26.9555 22.3655C25.7421 21.1104 23.9036 20.4882 22.1751 20.7479C21.9943 19.4266 21.6753 18.06 20.8032 17.0495C20.4824 16.6777 20.076 16.379 19.6288 16.1757C19.1888 15.9757 18.701 15.8656 18.2164 15.8962C18.0179 15.9088 17.8211 15.9453 17.6323 16.0077C17.4483 16.0686 17.2323 16.12 17.1557 16.317C17.0728 16.5308 17.0433 16.7456 17.0803 16.9735C17.1606 17.4661 17.4728 17.9018 17.784 18.2783C17.9986 18.5378 18.2319 18.7814 18.4645 19.0248C19.1909 19.7843 20.0821 20.3918 20.697 21.2436C21.2444 22.0015 21.5592 22.9346 22.2469 23.5685C22.9026 24.173 23.8152 24.426 24.5079 24.9877C25.8019 26.0371 26.1292 27.9824 27.4868 28.9484C27.8889 29.2347 28.3591 29.4154 28.758 29.7061C30.0139 30.6213 30.3189 32.4107 31.4764 33.4471C31.9431 33.8648 32.5309 34.1423 32.9519 34.6059C33.422 35.1237 33.6398 35.8259 34.082 36.3675C34.7979 37.2441 35.9894 37.5819 36.8659 38.289L37.6766 39.2002C37.9101 39.531 38.1365 39.8675 38.4398 40.1335C38.4535 40.1228 38.4648 40.1109 38.4766 40.0993L62.6247 67.2403C62.9277 66.9242 63.8503 65.9521 64.2827 65.8803L39.7117 39.3176Z" fill="#48B648"/>
<path fill-rule="evenodd" clip-rule="evenodd" d="M84.7561 13.7744C85.7783 12.7491 86.7296 11.6207 87.8529 10.7015C88.0362 10.5513 88.2236 10.4076 88.4129 10.2666C88.4169 10.1171 88.4208 9.96674 88.4245 9.81973C86.4813 9.74019 84.542 9.60699 82.6132 9.36084C82.1147 11.2367 81.5857 13.3105 81.1176 15.3725C82.3044 16.3789 83.9658 14.5673 84.7561 13.7744Z" fill="#7DCDF0"/>
<path fill-rule="evenodd" clip-rule="evenodd" d="M88.4239 9.81949C88.5124 6.22167 88.5174 3.37725 88.6377 2.80397L87.366 2.62224L86.3915 2.48278L85.7511 2.39136L84.4793 2.20947C84.4319 2.81329 83.5816 5.71298 82.6128 9.3606C84.5416 9.60692 86.4808 9.73996 88.4239 9.81949Z" fill="#516738"/>
<path fill-rule="evenodd" clip-rule="evenodd" d="M84.0158 12.5286C84.4139 11.9772 84.8559 10.777 83.8953 10.4805C83.4183 10.3333 82.9215 10.3288 82.4269 10.3579C82.4011 10.3594 82.3752 10.3615 82.3494 10.3631C82.0873 11.3665 81.822 12.412 81.5647 13.4726C82.5519 13.4776 83.4864 13.2618 84.0158 12.5286Z" fill="#F8D436"/>
<path fill-rule="evenodd" clip-rule="evenodd" d="M88.6637 5.56833C88.5566 4.87036 88.8938 4.18621 88.9714 3.48439C89.0228 3.02084 88.9579 2.54508 88.7854 2.11159C88.7557 2.03768 88.6887 1.98465 88.6107 1.96826C87.8743 1.81418 87.1312 1.69512 86.3871 1.5857C86.0085 1.52994 85.6293 1.47676 85.2502 1.42261C85.0076 1.38791 84.5491 1.24475 84.3653 1.47965C84.0776 1.84712 83.8812 2.2856 83.8 2.74496C83.6768 3.4402 83.8076 4.19135 83.5083 4.83116C83.4388 4.97914 83.3464 5.1231 83.2855 5.27349C83.2254 5.4218 83.3265 5.58633 83.4862 5.60191C85.1563 5.76564 86.8188 6.00328 88.4677 6.31434C88.6254 6.34391 88.7686 6.21456 88.753 6.05534C88.7367 5.89386 88.6884 5.72981 88.6637 5.56833Z" fill="#F8D436"/>
<path fill-rule="evenodd" clip-rule="evenodd" d="M81.0927 34.752C80.6711 32.5565 79.4126 30.4472 77.068 29.9498C76.7656 29.8856 76.4637 29.8472 76.1631 29.8281C76.1512 29.8444 76.1389 29.8603 76.127 29.8763C71.6005 35.9953 70.1263 43.8693 69.9951 51.4722C69.9877 51.8993 69.9855 52.3288 69.9892 52.7596C71.5692 52.6889 73.1601 52.792 74.7369 53.012C76.2973 53.2297 77.8052 53.6706 79.3564 53.9092C80.7492 54.1235 82.4772 54.0748 83.0415 52.5145C83.3867 51.5592 83.6384 50.0058 82.7417 49.2453C82.1126 48.7119 81.2847 48.5341 80.4825 48.4445C78.8686 48.2642 77.1337 48.4398 75.5875 47.8723C75.4794 47.8326 75.4048 47.6713 75.4673 47.5672C77.7738 43.7208 82.0346 39.6574 81.0927 34.752Z" fill="#7DCDF0"/>
<path fill-rule="evenodd" clip-rule="evenodd" d="M88.8594 31.6994C88.2104 29.9304 87.3504 28.2003 87.1698 26.325C87.0219 24.7885 87.4532 23.2688 87.6589 21.7389C88.1321 18.2182 88.317 13.903 88.4121 10.2661C88.2231 10.407 88.0359 10.5507 87.8526 10.7006C86.7292 11.6198 85.778 12.7482 84.7558 13.7735C83.9654 14.5664 82.3044 16.378 81.1172 15.3717C80.7043 17.1904 80.3383 18.9996 80.0848 20.6558C79.8512 22.1817 79.837 23.7611 79.2622 25.1944C78.5682 26.9247 77.2765 28.3328 76.163 29.8305C76.4636 29.8496 76.7652 29.888 77.0675 29.9521C79.4122 30.4495 80.6707 32.5589 81.0923 34.7543C82.0342 39.6597 77.7735 43.7232 75.4669 47.5694C75.4044 47.6737 75.479 47.835 75.5871 47.8747C77.1333 48.4422 78.8681 48.2664 80.482 48.4467C81.2843 48.5365 82.1122 48.7142 82.7413 49.2476C83.6379 50.0079 83.3863 51.5615 83.0411 52.5167C82.4769 54.0772 80.7488 54.1259 79.3559 53.9115C77.8049 53.6729 76.297 53.232 74.7365 53.0143C73.1603 52.7943 71.5699 52.691 69.9904 52.7619C70.0247 56.7532 70.599 60.8591 72.9687 64.0298L76.6832 64.7914L76.6672 64.9003L77.5789 64.9751L78.4746 65.1587L78.4902 65.0498L82.2694 65.3597C85.7788 62.7242 87.4988 58.3693 88.6606 54.1437C90.6766 46.8102 91.48 38.8404 88.8594 31.6994Z" fill="#516738"/>
<path fill-rule="evenodd" clip-rule="evenodd" d="M49.2029 48.7586C49.0344 44.5329 50.0154 40.0674 52.8858 36.9549C56.5161 33.0183 62.5301 32.0114 67.7701 33.1475C70.4737 33.7338 73.1506 34.8812 74.9931 36.9393C76.4768 38.5968 77.326 40.7471 77.7092 42.936C78.9898 50.2524 74.8533 58.0745 68.2471 61.5022C66.9774 62.161 65.6122 62.6777 64.1873 62.812C60.6994 63.1408 57.4178 61.1686 54.7138 58.947C52.8001 57.3748 50.9736 55.5664 50.0447 53.2738C49.4668 51.8473 49.2642 50.296 49.2029 48.7586Z" fill="#F0A023"/>
<path fill-rule="evenodd" clip-rule="evenodd" d="M63.6765 39.7311C63.6066 39.7846 63.5349 39.8401 63.4899 39.9156C63.3632 40.1285 63.4909 40.3966 63.6172 40.6097C63.7732 40.8727 63.9289 41.1357 64.0849 41.3986C64.1429 41.4963 64.2018 41.5966 64.2221 41.7082C64.2838 42.0466 63.88 42.37 63.562 42.2372C63.4729 42.1999 63.3978 42.1374 63.3208 42.0792C63.2077 41.9939 63.0883 41.9169 62.9638 41.8491C62.7167 41.7142 62.3819 41.626 62.1746 41.8164C62.0513 41.9295 62.0157 42.1064 61.9869 42.2709C61.9308 42.5895 61.8746 42.9081 61.8187 43.2268C61.5635 43.342 61.1922 43.4218 61.0635 43.1737C61.0258 43.1014 61.0222 43.0169 61.0193 42.9355L60.9744 41.6422C60.9678 41.4515 60.0289 41.6216 59.9199 41.6378C59.824 41.6523 59.5516 41.749 59.4647 41.709C59.2853 41.6261 59.0931 40.9611 59.3206 40.8477C59.5337 40.6134 59.9535 40.741 60.2045 40.5478C60.2865 40.4845 60.3445 40.3782 60.3181 40.2782C60.3018 40.217 60.2575 40.1678 60.2166 40.1193C59.9517 39.8044 59.7844 39.4091 59.7423 39.0002C59.7335 38.9143 59.7304 38.8251 59.7589 38.7435C59.8554 38.4653 60.2396 38.425 60.5236 38.5053C60.788 38.5801 61.0351 38.7158 61.2397 38.8988C61.4641 39.0994 61.6918 39.3772 61.9911 39.3418C62.0857 39.3306 62.1728 39.2873 62.2587 39.2465C62.9371 38.9249 63.6699 38.7182 64.4167 38.6382C64.5406 38.7018 64.5682 38.8773 64.5121 39.0047C64.4562 39.1321 64.341 39.2223 64.2303 39.3071C64.0457 39.4485 63.8611 39.5897 63.6765 39.7311Z" fill="#00AC9F"/>
<path fill-rule="evenodd" clip-rule="evenodd" d="M62.3639 40.6753C62.3638 40.3588 62.0804 40.0352 61.7463 40.0352C61.4706 40.0352 61.2472 40.2579 61.2472 40.5328C61.2472 40.8279 61.5443 41.1835 61.8516 41.1827C61.999 41.1824 62.1408 41.1136 62.2384 41.0045C62.3261 40.9065 62.3641 40.7915 62.3639 40.6753Z" fill="#F0A023"/>
<path fill-rule="evenodd" clip-rule="evenodd" d="M61.3256 40.5663C61.3256 40.7982 61.514 40.9863 61.7467 40.9863C61.9791 40.9863 62.1676 40.7982 62.1676 40.5663C62.1676 40.3345 61.9791 40.1465 61.7467 40.1465C61.514 40.1465 61.3256 40.3345 61.3256 40.5663Z" fill="#00AC9F"/>
<path fill-rule="evenodd" clip-rule="evenodd" d="M47.2332 49.6067L47.7658 49.4573L43.5579 45.4668C42.7041 44.5742 41.374 44.1574 40.7406 43.0979C40.3024 42.3651 40.2692 41.4242 39.7408 40.7532C38.8585 39.6328 37.0223 39.7485 36.0335 38.7204C35.4476 38.1113 35.2742 37.2145 34.7787 36.5302C33.7855 35.1584 31.7045 34.8815 30.7962 33.4522C30.4614 32.9255 30.3279 32.2979 30.0584 31.7351C29.4356 30.4342 28.1399 29.5823 26.8124 29.0121C26.1977 28.7481 25.5362 28.5114 25.0967 28.0077C24.6608 27.5084 24.5155 26.8287 24.264 26.2159C23.732 24.9201 22.6537 23.8578 21.3478 23.3435C20.3582 22.9537 19.1417 22.7858 18.5951 21.8754C18.2782 21.3478 18.2774 20.6898 18.0409 20.1218C17.4536 18.7118 15.6902 18.282 14.5172 17.3006C13.7728 16.6776 13.2612 15.8174 12.5343 15.174C12.1224 14.8095 11.6687 14.4425 11.1331 14.2808C10.6411 14.1322 10.0329 14.187 9.65773 14.5685C9.07955 15.1567 8.59384 15.773 8.50604 16.6212C8.46045 17.0618 8.4938 17.5106 8.59755 17.9408C8.64974 18.157 8.71982 18.3689 8.80826 18.5731C8.86819 18.7111 9.12482 19.0182 9.12482 19.1527C10.1206 20.6251 11.8731 21.3899 13.5855 21.8772C13.3398 25.2975 16.5785 28.5412 20.0088 28.3106C19.2608 30.0636 20.1479 32.2036 21.6797 33.3415C23.2114 34.4794 25.2228 34.7766 27.1309 34.6932C26.3356 36.3395 27.3529 38.3987 28.8936 39.3876C30.4345 40.3768 32.34 40.566 34.1651 40.7288C33.9819 43.5322 36.8796 46.0969 39.6488 45.5821L61.2261 64.9575C62.3878 65.284 63.5308 65.6764 64.6923 66.0029L47.2332 49.6067Z" fill="#48B648"/>
<path fill-rule="evenodd" clip-rule="evenodd" d="M69.9939 51.4751C69.9873 51.8565 69.9863 52.2406 69.9886 52.625C69.9863 52.2406 69.9873 51.8564 69.9939 51.4751Z" fill="#516738"/>
<path fill-rule="evenodd" clip-rule="evenodd" d="M61.3089 62.0077L39.2976 47.2806C37.8443 45.8931 35.7075 43.8315 35.1087 43.3632C33.6787 42.2451 31.7004 42.01 30.2866 40.8717C29.7621 40.4493 29.3356 39.9174 28.8206 39.4834C27.2916 38.1955 25.1263 37.8788 23.5709 36.6228C22.6581 35.8856 22.0087 34.8658 21.1019 34.1214C19.8194 33.0692 18.1311 32.6509 16.7336 31.7558C15.4297 30.9208 14.4497 29.6862 13.3156 28.6524C12.9729 28.3402 12.6169 28.0391 12.2448 27.7642C12.0688 27.634 11.8444 27.5428 11.6539 27.4324C11.2835 27.2179 10.8906 27.0169 10.4637 26.9467C10.2534 26.9121 10.038 26.912 9.82846 26.9525C9.6564 26.9856 9.39752 27.0349 9.29458 27.1936C9.29281 27.1965 9.29264 27.201 9.29119 27.2044L9.28024 27.197C8.43866 29.4802 10.5896 32.277 13.0188 32.058C12.7859 33.9579 13.6821 35.9529 15.2584 37.0444C16.8349 38.1357 19.0225 38.2757 20.7256 37.3939C20.1906 39.2036 21.303 41.2483 22.9993 42.0833C24.6959 42.9183 26.7911 42.6696 28.4477 41.7584C28.222 43.1057 28.6788 44.8792 29.903 45.4922C31.127 46.1048 32.4919 46.1371 33.4403 45.1516L60.3296 64.056C60.4913 63.9798 61.2986 62.8367 61.3282 62.6606C61.3579 62.4848 61.4077 61.8588 61.3089 62.0077Z" fill="#48B648"/>
<path fill-rule="evenodd" clip-rule="evenodd" d="M31.1919 24.2848C31.1919 25.9619 29.8287 27.3215 28.1472 27.3215C26.4656 27.3215 25.1024 25.9619 25.1024 24.2848C25.1024 22.6077 26.4656 21.248 28.1472 21.248C29.8287 21.248 31.1919 22.6077 31.1919 24.2848Z" fill="#5955A4"/>
<path fill-rule="evenodd" clip-rule="evenodd" d="M32.2553 32.1418C32.2553 33.4197 31.2167 34.4555 29.9355 34.4555C28.6543 34.4555 27.6157 33.4197 27.6157 32.1418C27.6157 30.864 28.6543 29.8281 29.9355 29.8281C31.2167 29.8281 32.2553 30.864 32.2553 32.1418Z" fill="#5955A4"/>
<path fill-rule="evenodd" clip-rule="evenodd" d="M39.022 26.7445C39.022 28.2885 37.7669 29.5402 36.2189 29.5402C34.6707 29.5402 33.4158 28.2885 33.4158 26.7445C33.4158 25.2004 34.6707 23.9487 36.2189 23.9487C37.7669 23.9487 39.022 25.2004 39.022 26.7445Z" fill="#5955A4"/>
<path fill-rule="evenodd" clip-rule="evenodd" d="M26.746 29.8288C26.746 31.2132 25.6209 32.3353 24.2329 32.3353C22.845 32.3353 21.7197 31.2132 21.7197 29.8288C21.7197 28.4444 22.845 27.3223 24.2329 27.3223C25.6209 27.3223 26.746 28.4444 26.746 29.8288Z" fill="#5955A4"/>
<path fill-rule="evenodd" clip-rule="evenodd" d="M27.5188 20.4301C27.5188 21.6814 26.5018 22.6956 25.2473 22.6956C23.9928 22.6956 22.9758 21.6814 22.9758 20.4301C22.9758 19.1789 23.9928 18.1646 25.2473 18.1646C26.5018 18.1646 27.5188 19.1789 27.5188 20.4301Z" fill="#5955A4"/>
<path fill-rule="evenodd" clip-rule="evenodd" d="M36.8956 20.1407C36.8956 21.4452 35.8352 22.5026 34.5274 22.5026C33.2196 22.5026 32.1593 21.4452 32.1593 20.1407C32.1593 18.8362 33.2196 17.7788 34.5274 17.7788C35.8352 17.7788 36.8956 18.8362 36.8956 20.1407Z" fill="#5955A4"/>
<path fill-rule="evenodd" clip-rule="evenodd" d="M44.6923 43.2601C44.6923 44.7153 43.5096 45.8951 42.0503 45.8951C40.5911 45.8951 39.4083 44.7153 39.4083 43.2601C39.4083 41.8047 40.5911 40.625 42.0503 40.625C43.5096 40.625 44.6923 41.8047 44.6923 43.2601Z" fill="#5955A4"/>
<path fill-rule="evenodd" clip-rule="evenodd" d="M37.7733 44.8315C37.7733 44.8307 37.7729 44.8299 37.7729 44.8289L37.7255 44.8334C37.5848 44.7407 37.4914 44.4981 37.4469 44.403C37.344 44.1824 37.2411 43.9619 37.1381 43.7415C37.0614 43.5775 36.9611 43.3946 36.7384 43.3305C36.529 43.2702 36.2825 43.3446 36.1322 43.4658C35.9819 43.5871 35.9067 43.746 35.8352 43.9001C35.7748 44.0304 35.7143 44.1607 35.6539 44.291C35.4743 44.2783 35.3495 44.1254 35.2863 43.9902C35.1834 43.7698 35.0806 43.5493 34.9776 43.3287C34.901 43.1647 34.8006 42.9818 34.5778 42.9177C34.3685 42.8575 34.1219 42.9319 33.9716 43.0532C33.8214 43.1743 33.7462 43.3332 33.6747 43.4873L33.5368 43.7846C33.3683 43.7619 33.25 43.6157 33.1893 43.4857C33.0865 43.2653 32.9836 43.0448 32.8805 42.8244C32.8039 42.6603 32.7036 42.4773 32.4808 42.4132C32.2715 42.353 32.0249 42.4275 31.8747 42.5487C31.7244 42.6698 31.6492 42.8287 31.5777 42.983C31.5173 43.1133 31.4568 43.2434 31.3964 43.3737C31.2168 43.3612 31.092 43.2081 31.0288 43.0729C30.9259 42.8525 30.8229 42.632 30.72 42.4116C30.6435 42.2476 30.5431 42.0645 30.3203 42.0004C30.111 41.9402 29.8644 42.0147 29.7141 42.1359C29.5639 42.257 29.4887 42.4159 29.417 42.5702C29.3721 42.6674 29.3268 42.7646 29.2819 42.8618C29.1446 42.8162 29.0489 42.683 28.9954 42.5684C28.8925 42.348 28.7894 42.1275 28.6866 41.9071C28.6099 41.743 28.5096 41.5602 28.2868 41.4959C28.0775 41.4357 27.8309 41.5102 27.6807 41.6314C27.6706 41.6396 27.6633 41.649 27.6538 41.6576L27.7704 43.2584L29.6181 76.6053L27.7218 84.5886L38.3987 92.8736L37.9924 45.6553C37.8234 45.4209 37.7503 45.1233 37.7733 44.8315Z" fill="#A51E22"/>
<path fill-rule="evenodd" clip-rule="evenodd" d="M37.1114 88.4679L34.8203 78.2063L34.0995 49.0752C34.0788 48.7565 33.8039 48.5114 33.4832 48.5359C33.1636 48.5566 32.9213 48.8317 32.9422 49.1506L33.6467 78.0324L29.293 82.9308C29.0531 83.1425 29.0314 83.5084 29.2439 83.7473C29.4567 83.9867 29.823 84.0082 30.0624 83.7963L33.8543 79.3946L35.9696 88.6705C36.0197 88.9511 36.2641 89.1476 36.5397 89.1476C36.5735 89.1476 36.608 89.1447 36.6423 89.1386C36.9576 89.0825 37.1676 88.7823 37.1114 88.4679Z" fill="#860A0E"/>
<path fill-rule="evenodd" clip-rule="evenodd" d="M88.1687 40.2638C88.0549 40.4269 87.9928 40.6052 87.8795 40.7685C87.8002 40.883 87.6846 40.9912 87.5399 41.0615C87.0626 41.0369 86.641 40.7566 86.3955 40.4468C86.3057 40.3335 86.2237 40.2103 86.0768 40.1346C85.8832 40.035 85.605 40.0409 85.3841 40.1225C85.1632 40.2042 84.9957 40.3513 84.8839 40.5117C84.7702 40.6748 84.708 40.8531 84.5947 41.0164C84.5153 41.1308 84.3996 41.2391 84.255 41.3094C83.7778 41.2849 83.356 41.0045 83.1107 40.6947C83.0208 40.5813 82.9388 40.4582 82.792 40.3825C82.5986 40.2829 82.3202 40.2888 82.0993 40.3705C81.8783 40.4521 81.7109 40.5993 81.5991 40.7596C81.4854 40.9227 81.423 41.1009 81.3099 41.2643C81.2307 41.3787 81.115 41.487 80.9702 41.5574C80.493 41.5326 80.0712 41.2524 79.8259 40.9426C79.736 40.8292 79.6538 40.706 79.5071 40.6304C79.3136 40.5308 79.0354 40.5368 78.8145 40.6184C78.5935 40.7 78.426 40.8472 78.3143 41.0075C78.2006 41.1706 78.1382 41.3488 78.0251 41.5122C77.9457 41.6266 77.8301 41.7349 77.6856 41.8053C77.2082 41.7805 76.7865 41.5003 76.5409 41.1905C76.4512 41.0771 76.3692 40.9539 76.2225 40.8784C76.029 40.7786 75.7506 40.7847 75.5297 40.8663C75.3087 40.9479 75.1413 41.0951 75.0294 41.2555C74.9156 41.4185 74.8536 41.5967 74.7404 41.7601C74.6609 41.8745 74.5454 41.9828 74.4006 42.0532C73.9233 42.0285 73.5017 41.7482 73.2563 41.4385C73.1664 41.325 73.0843 41.2018 72.9375 41.1263C72.744 41.0265 72.4657 41.0324 72.2448 41.1141C72.0239 41.1959 71.8564 41.3429 71.7447 41.5032C71.631 41.6663 71.5687 41.8447 71.4556 42.0079C71.3761 42.1225 71.2605 42.2308 71.1158 42.3011C70.6386 42.2764 70.2167 41.996 69.9714 41.6864C69.8815 41.5728 69.7996 41.4497 69.6527 41.3742C69.4591 41.2744 69.181 41.2804 68.9602 41.362C68.7393 41.4436 68.5716 41.5908 68.4598 41.7511C68.3461 41.9142 68.2837 42.0926 68.1706 42.2558C68.0914 42.3702 67.9757 42.4787 67.831 42.549C67.7176 42.5431 67.6076 42.5219 67.5022 42.4902C67.7824 41.3683 68.0854 40.2623 68.275 39.1167C68.9139 35.2581 69.4335 31.3571 70.5528 27.6007C71.6684 23.8572 73.4105 20.317 75.4709 17.0065C77.4251 13.8666 79.8837 10.6515 83.9131 10.5013C86.953 10.3878 87.6786 13.6998 88.1184 16.0749C88.7855 19.6785 88.6233 23.5116 88.6151 27.1595C88.6057 31.1658 88.2708 35.361 88.8912 39.3325C88.9167 39.4943 88.946 39.6555 88.9729 39.8171C88.8686 39.8219 88.7633 39.8398 88.6689 39.8746C88.448 39.9562 88.2805 40.1034 88.1687 40.2638ZM111.581 90.2567C111.58 90.1899 111.579 90.1231 111.578 90.0564C111.576 89.9476 111.574 89.8388 111.572 89.7299L111.564 89.2832C111.561 89.0962 111.558 88.9093 111.555 88.7223C111.551 88.4993 111.547 88.2761 111.544 88.0532C111.539 87.796 111.535 87.5388 111.53 87.2819C111.526 86.9926 111.521 86.7033 111.516 86.414C111.51 86.0948 111.505 85.7757 111.499 85.4564C111.494 85.1089 111.488 84.7615 111.482 84.4141C111.475 84.0406 111.469 83.6672 111.463 83.2937C111.456 82.8961 111.449 82.4984 111.442 82.1011C111.435 81.6812 111.428 81.2615 111.421 80.8419C111.413 80.4021 111.406 79.9623 111.398 79.5226C111.391 79.0645 111.383 78.6067 111.375 78.1488C111.367 77.6748 111.359 77.2008 111.351 76.7267C111.343 76.2385 111.334 75.7504 111.326 75.2623C111.318 74.7619 111.309 74.2618 111.301 73.7614C111.292 73.2511 111.283 72.7407 111.275 72.2302C111.266 71.7117 111.257 71.1931 111.248 70.6747C111.239 70.15 111.23 69.6252 111.221 69.1006L111.195 67.5142C111.185 66.9832 111.176 66.4522 111.167 65.9213C111.158 65.3901 111.149 64.8589 111.14 64.3279L111.113 62.7401C111.104 62.2146 111.095 61.6892 111.086 61.1638C111.078 60.6441 111.069 60.1245 111.06 59.6049C111.051 59.0931 111.042 58.5814 111.034 58.0697C111.025 57.5677 111.017 57.0658 111.008 56.5638C111 56.0736 110.992 55.5837 110.983 55.0935C110.975 54.6172 110.967 54.1408 110.959 53.6646C110.951 53.2041 110.943 52.7436 110.935 52.2831L110.913 50.9552C110.906 50.5323 110.899 50.1094 110.891 49.6866C110.885 49.2854 110.878 48.8844 110.871 48.4833C110.864 48.1061 110.858 47.7288 110.852 47.3516L110.834 46.2972L110.817 45.3261C110.812 45.0322 110.807 44.7383 110.802 44.4443C110.798 44.1823 110.793 43.92 110.789 43.658C110.785 43.4297 110.781 43.2013 110.777 42.973C110.774 42.7804 110.771 42.5879 110.767 42.3952C110.761 42.022 110.756 41.6489 110.753 41.2757C110.748 40.8108 110.746 40.3462 110.746 39.8813V39.4967C110.746 39.4652 110.764 39.3399 110.74 39.3209C110.71 39.2971 110.638 39.3188 110.605 39.3228C110.543 39.33 110.485 39.3275 110.423 39.3191C110.281 39.3 110.143 39.2582 110.013 39.1993C109.771 39.0892 109.553 38.9197 109.388 38.7115C109.298 38.598 109.216 38.4749 109.069 38.3993C108.876 38.2996 108.598 38.3056 108.377 38.3872C108.156 38.4688 107.988 38.616 107.877 38.7764C107.763 38.9394 107.701 39.1178 107.587 39.281C107.508 39.3954 107.392 39.5037 107.248 39.5741C106.77 39.5495 106.349 39.2692 106.103 38.9594C106.013 38.8459 105.932 38.7229 105.785 38.6472C105.591 38.5474 105.313 38.5535 105.092 38.6351C104.871 38.7168 104.704 38.8639 104.592 39.0243C104.478 39.1874 104.416 39.3657 104.303 39.529C104.223 39.6434 104.107 39.7517 103.963 39.822C103.486 39.7975 103.064 39.5171 102.818 39.2073C102.729 39.0939 102.647 38.9708 102.5 38.8951C102.306 38.7953 102.028 38.8014 101.807 38.8831C101.586 38.9647 101.419 39.1119 101.307 39.2722C101.193 39.4353 101.131 39.6136 101.018 39.7767C100.938 39.8913 100.823 39.9996 100.678 40.07C100.201 40.0454 99.7791 39.765 99.5338 39.4552C99.4439 39.3418 99.3619 39.2185 99.2149 39.143C99.0215 39.0432 98.7431 39.0492 98.5222 39.131C98.3014 39.2126 98.1338 39.3598 98.0222 39.5201C97.9084 39.6831 97.8461 39.8616 97.733 40.0246C97.6536 40.1392 97.5379 40.2475 97.3934 40.3179C96.9161 40.2933 96.4943 40.0128 96.2488 39.7031C96.1589 39.5897 96.0771 39.4665 95.9303 39.3908C95.7367 39.2912 95.4585 39.2971 95.2376 39.3787C95.0166 39.4604 94.8492 39.6077 94.7372 39.768C94.6235 39.931 94.5613 40.1093 94.4481 40.2726C94.3688 40.3871 94.2531 40.4954 94.1085 40.5656C93.6311 40.5412 93.2095 40.2607 92.964 39.9509C92.8743 39.8376 92.7921 39.7144 92.6454 39.6387C92.4519 39.5391 92.1737 39.545 91.9527 39.6267C91.856 39.6625 91.7711 39.7125 91.6951 39.769C91.6675 39.6273 91.6396 39.4853 91.6143 39.3456C90.6875 34.2327 91.3714 28.6513 91.3033 23.4737C91.2292 17.8331 91.3582 7.52409 83.3378 7.82327C79.5794 7.96353 76.6833 10.6339 74.5937 13.4816C71.8937 17.161 69.8594 21.3328 68.3505 25.6257C66.827 29.961 66.2941 34.594 65.5473 39.1062C65.3541 40.2732 64.9636 41.4943 64.6532 42.7245C64.6176 42.7492 64.5853 42.7773 64.5452 42.7968C64.0679 42.7722 63.6461 42.4918 63.4008 42.182C63.3109 42.0686 63.2289 41.9455 63.0821 41.8698C62.8887 41.7702 62.6103 41.7762 62.3894 41.8578C62.1684 41.9394 62.001 42.0866 61.8892 42.2469C61.7755 42.41 61.7131 42.5884 61.6 42.7516C61.5208 42.866 61.4051 42.9745 61.2604 43.0447C60.7831 43.0201 60.3613 42.7397 60.116 42.4299C60.0261 42.3165 59.9441 42.1934 59.7973 42.1177C59.6037 42.0181 59.3255 42.0241 59.1046 42.1057C58.8838 42.1873 58.7162 42.3345 58.6044 42.4949C58.4907 42.6579 58.4283 42.8363 58.3152 42.9995C58.236 43.1139 58.1203 43.2222 57.9755 43.2926C57.4983 43.268 57.0766 42.9876 56.8312 42.6779C56.7413 42.5644 56.6593 42.4413 56.5126 42.3657C56.3189 42.2659 56.0407 42.272 55.8198 42.3536C55.5988 42.4352 55.4314 42.5824 55.3196 42.7428C55.2059 42.9059 55.1435 43.0842 55.0305 43.2475C54.951 43.3619 54.8354 43.4701 54.6907 43.5405C54.2135 43.5159 53.7918 43.2356 53.5464 42.9258C53.4565 42.8123 53.3745 42.6891 53.2278 42.6136C53.0341 42.5138 52.7559 42.5199 52.5349 42.6015C52.314 42.6832 52.1466 42.8303 52.0347 42.9907C51.9211 43.1538 51.8588 43.3321 51.7457 43.4952C51.6663 43.6098 51.5507 43.7181 51.4059 43.7884C50.9287 43.7639 50.507 43.4835 50.2616 43.1737C50.1717 43.0603 50.0897 42.937 49.943 42.8613C49.7493 42.7617 49.4711 42.7677 49.2501 42.8495C49.0292 42.9311 48.8619 43.0783 48.7499 43.2386C48.6363 43.4015 48.574 43.58 48.4607 43.7431C48.3815 43.8577 48.2658 43.966 48.1211 44.0364C47.644 44.0118 47.2222 43.7314 46.9767 43.4216C46.887 43.3082 46.805 43.1849 46.658 43.1093C46.4646 43.0097 46.1863 43.0156 45.9653 43.0972C45.7445 43.179 45.5771 43.3262 45.4651 43.4865C45.3515 43.6495 45.2892 43.8278 45.1759 43.9911C45.0967 44.1056 44.981 44.2137 44.8363 44.2841C44.359 44.2595 43.9374 43.9793 43.6919 43.6694C43.6022 43.5561 43.52 43.4329 43.3733 43.3572C43.1798 43.2576 42.9016 43.2635 42.6805 43.3451C42.4597 43.4269 42.2921 43.5741 42.1803 43.7345C42.0666 43.8974 42.0044 44.0757 41.8912 44.239C41.8119 44.3535 41.6962 44.4617 41.5516 44.532C41.0742 44.5075 40.6526 44.2271 40.4071 43.9173C40.3174 43.804 40.2352 43.6808 40.0885 43.6051C39.895 43.5055 39.6166 43.5114 39.3957 43.5931C39.1749 43.6747 39.0073 43.822 38.8955 43.9822C38.7818 44.1453 38.7196 44.3236 38.6064 44.4869C38.4942 44.6487 38.3428 44.7788 38.1421 44.7984C38.0014 44.8123 37.8602 44.8196 37.7194 44.8304L38.3771 92.8608L111.582 90.3249C111.582 90.3022 111.581 90.2794 111.581 90.2567Z" fill="#CF252A"/>
<path fill-rule="evenodd" clip-rule="evenodd" d="M86.249 66.8534C85.0542 68.0315 83.9284 69.1327 82.812 70.2436C79.3871 73.652 75.9749 77.0729 72.5394 80.4709C70.7442 82.2467 67.924 81.9897 66.5318 79.9607C65.4664 78.408 65.6889 76.3784 67.1156 74.9467C69.6075 72.4468 72.1133 69.9604 74.6189 67.4741C74.7987 67.2958 75.0252 67.1645 75.292 66.9646C74.9992 66.6563 74.8196 66.4577 74.6302 66.2687C72.0819 63.7259 69.5119 61.2041 66.9893 58.6361C65.0286 56.6402 65.6942 53.4124 68.2409 52.3442C69.7189 51.7243 71.3892 52.1009 72.6474 53.3534C76.2861 56.9753 79.9193 60.6027 83.5585 64.2241C84.427 65.0884 85.3108 65.9374 86.249 66.8534Z" fill="#FEFEFE"/>
</svg>
