<svg width="57" height="70" viewBox="0 0 57 70" fill="none" xmlns="http://www.w3.org/2000/svg">
<path fill-rule="evenodd" clip-rule="evenodd" d="M22.5701 24.3632C22.4376 23.7238 22.0121 23.5243 21.5964 23.3293C18.1141 21.6941 14.6292 20.0645 11.1459 18.4317C10.5938 18.1732 10.004 17.9645 9.68364 18.7069C9.36797 19.4388 9.91628 19.8208 10.4436 20.0696C13.9742 21.7365 17.513 23.3859 21.0566 25.0229C21.7983 25.3656 22.3837 25.2332 22.5701 24.3632Z" fill="white"/>
<path d="M22.5701 24.3632C22.4376 23.7238 22.0121 23.5243 21.5964 23.3293C18.1141 21.6941 14.6292 20.0645 11.1459 18.4317C10.5938 18.1732 10.004 17.9645 9.68364 18.7069C9.36797 19.4388 9.91628 19.8208 10.4436 20.0696C13.9742 21.7365 17.513 23.3859 21.0566 25.0229C21.7983 25.3656 22.3837 25.2332 22.5701 24.3632" stroke="white" stroke-linecap="round"/>
<path fill-rule="evenodd" clip-rule="evenodd" d="M30.8415 1.6435C30.1016 1.79874 29.834 2.30887 30.081 2.94219C31.3961 6.31314 32.7488 9.66973 34.1068 13.0242C34.3222 13.5561 34.748 13.9453 35.3862 13.6492C35.9894 13.3693 36.0057 12.8374 35.7835 12.2859C34.4743 9.03583 33.1665 5.78548 31.868 2.53143C31.6842 2.07104 31.4536 1.69246 30.8415 1.6435Z" fill="white"/>
<path d="M30.8415 1.6435C30.1016 1.79874 29.834 2.30887 30.081 2.94219C31.3961 6.31314 32.7488 9.66973 34.1068 13.0242C34.3222 13.5561 34.748 13.9453 35.3862 13.6492C35.9894 13.3693 36.0057 12.8374 35.7835 12.2859C34.4743 9.03583 33.1665 5.78548 31.868 2.53143C31.6842 2.07104 31.4536 1.69246 30.8415 1.6435" stroke="white" stroke-linecap="round"/>
<path fill-rule="evenodd" clip-rule="evenodd" d="M13.5474 47.871C13.8941 48.5893 14.4871 48.8349 15.2353 48.3614C18.1948 46.4894 21.1344 44.589 24.0713 42.6855C24.6947 42.2815 24.8728 41.6876 24.4229 41.1361C24.0156 40.6367 23.3928 40.7742 22.8901 41.096C20.0002 42.9462 17.1188 44.8081 14.2477 46.6837C13.839 46.9506 13.4949 47.3106 13.5474 47.871Z" fill="white"/>
<path d="M13.5474 47.871C13.8941 48.5893 14.4871 48.8349 15.2353 48.3614C18.1948 46.4894 21.1344 44.589 24.0713 42.6855C24.6947 42.2815 24.8728 41.6876 24.4229 41.1361C24.0156 40.6367 23.3928 40.7742 22.8901 41.096C20.0002 42.9462 17.1188 44.8081 14.2477 46.6837C13.839 46.9506 13.4949 47.3106 13.5474 47.871" stroke="white" stroke-linecap="round"/>
<path fill-rule="evenodd" clip-rule="evenodd" d="M29.8557 64.7957C30.5072 64.8844 30.7643 64.4101 30.9259 63.928C31.4821 62.2696 32.0093 60.6021 32.5396 58.9356C33.0323 57.3879 33.5182 55.8381 33.9991 54.2869C34.1563 53.7797 34.1856 53.2787 33.6296 52.9873C33.034 52.6753 32.5475 53.0414 32.3925 53.4999C31.233 56.9283 30.1361 60.3763 29.1341 63.4651C29.1517 64.3368 29.3205 64.7227 29.8557 64.7957Z" fill="white" stroke="white" stroke-linecap="round"/>
</svg>
